<svg preserveAspectRatio="none" width="100%" height="100%" overflow="visible" style="display: block;" viewBox="0 0 25 24" fill="none" xmlns="http://www.w3.org/2000/svg">
<g id="Pl7lVMFgE2fw0SJ7QVYa9taxO8g.svg">
<path id="Vector" d="M11.914 4.776C12.608 3.006 12.956 2.12 13.682 2.011C14.408 1.901 15.032 2.641 16.282 4.12L16.605 4.502C16.96 4.922 17.137 5.132 17.378 5.252C17.62 5.372 17.898 5.389 18.453 5.422L18.959 5.451C20.914 5.565 21.891 5.623 22.23 6.261C22.57 6.901 22.046 7.699 20.999 9.294L20.728 9.707C20.43 10.16 20.281 10.387 20.241 10.646C20.201 10.904 20.274 11.166 20.42 11.689L20.552 12.166C21.066 14.008 21.322 14.928 20.806 15.432C20.289 15.937 19.341 15.69 17.445 15.197L16.955 15.07C16.415 14.93 16.146 14.86 15.88 14.9C15.614 14.94 15.381 15.085 14.916 15.376L14.492 15.641C12.854 16.665 12.036 17.177 11.377 16.849C10.718 16.522 10.657 15.572 10.532 13.672L10.499 13.18C10.464 12.64 10.446 12.37 10.322 12.136C10.198 11.902 9.982 11.73 9.548 11.386L9.153 11.074C7.627 9.865 6.864 9.26 6.974 8.554C7.084 7.847 7.994 7.507 9.813 6.825L10.283 6.649C10.801 6.455 11.059 6.359 11.248 6.174C11.438 5.989 11.536 5.737 11.734 5.234L11.914 4.776ZM5.644 9.593C3.206 11.92 1.609 15.806 2.664 22C3.608 19.397 6.191 17.24 9.246 15.953C9.139 15.36 9.092 14.636 9.042 13.873L9.003 13.278C8.99374 13.1346 8.98307 12.9912 8.971 12.848C8.85356 12.7512 8.73522 12.6556 8.616 12.561L8.141 12.186C7.448 11.636 6.802 11.126 6.358 10.654C6.105 10.385 5.822 10.03 5.644 9.593Z" fill="var(--fill-0, #00B8B2)"/>
<path id="Vector_2" d="M10.68 15.423L10.665 15.309L10.721 15.41L10.68 15.423Z" fill="var(--fill-0, #00B8B2)"/>
</g>
</svg>
