<svg preserveAspectRatio="none" width="100%" height="100%" overflow="visible" style="display: block;" viewBox="0 0 17 17" fill="none" xmlns="http://www.w3.org/2000/svg">
<g id="icon/Generate B">
<g id="Vector">
<path d="M4.56196 2.71579C4.75297 1.92804 5.87333 1.92804 6.06434 2.71579L6.58994 4.88332C6.65814 5.16457 6.87773 5.38416 7.15898 5.45236L9.32651 5.97795C10.1143 6.16897 10.1143 7.28932 9.32651 7.48034L7.15898 8.00593C6.87773 8.07413 6.65814 8.29372 6.58994 8.57497L6.06434 10.7425C5.87333 11.5302 4.75297 11.5302 4.56196 10.7425L4.03636 8.57497C3.96816 8.29372 3.74857 8.07413 3.46732 8.00593L1.29979 7.48034C0.512048 7.28932 0.512048 6.16897 1.29979 5.97795L3.46732 5.45236C3.74857 5.38416 3.96816 5.16457 4.03636 4.88332L4.56196 2.71579Z" fill="var(--fill-0, white)"/>
<path d="M10.8717 10.2802C10.9893 9.79545 11.6787 9.79545 11.7963 10.2802L12.1197 11.6141C12.1617 11.7872 12.2968 11.9223 12.4699 11.9643L13.8037 12.2877C14.2885 12.4053 14.2885 13.0947 13.8037 13.2123L12.4699 13.5357C12.2968 13.5777 12.1617 13.7128 12.1197 13.8859L11.7963 15.2197C11.6787 15.7045 10.9893 15.7045 10.8717 15.2197L10.5483 13.8859C10.5063 13.7128 10.3712 13.5777 10.1981 13.5357L8.86423 13.2123C8.37946 13.0947 8.37946 12.4053 8.86423 12.2877L10.1981 11.9643C10.3712 11.9223 10.5063 11.7872 10.5483 11.6141L10.8717 10.2802Z" fill="var(--fill-0, white)"/>
<path d="M13.1556 2.6292C13.2328 2.31107 13.6852 2.31107 13.7624 2.6292L13.9746 3.50455C14.0022 3.61813 14.0908 3.70681 14.2044 3.73435L15.0798 3.94661C15.3979 4.02375 15.3979 4.4762 15.0798 4.55335L14.2044 4.76561C14.0908 4.79315 14.0022 4.88183 13.9746 4.99541L13.7624 5.87076C13.6852 6.18889 13.2328 6.18889 13.1556 5.87076L12.9434 4.99541C12.9158 4.88183 12.8271 4.79315 12.7136 4.76561L11.8382 4.55335C11.5201 4.4762 11.5201 4.02375 11.8382 3.94661L12.7136 3.73435C12.8271 3.70681 12.9158 3.61813 12.9434 3.50455L13.1556 2.6292Z" fill="var(--fill-0, white)"/>
<path fill-rule="evenodd" clip-rule="evenodd" d="M13.459 2.7845L13.2857 3.49894C13.2165 3.78452 12.9935 4.00749 12.7079 4.07674L11.9935 4.24998L12.7079 4.42322C12.9935 4.49247 13.2165 4.71544 13.2857 5.00101L13.459 5.71546L13.6322 5.00101C13.7015 4.71544 13.9244 4.49247 14.21 4.42322L14.9245 4.24998L14.21 4.07674C13.9244 4.00749 13.7015 3.78452 13.6322 3.49894L13.459 2.7845ZM13.8057 2.39766C13.7175 2.03409 13.2004 2.03409 13.1123 2.39766L12.8697 3.39806C12.8382 3.52787 12.7369 3.62922 12.6071 3.66069L11.6067 3.90328C11.2431 3.99144 11.2431 4.50852 11.6067 4.59668L12.6071 4.83927C12.7369 4.87074 12.8382 4.97209 12.8697 5.1019L13.1123 6.1023C13.2004 6.46587 13.7175 6.46587 13.8057 6.1023L14.0483 5.1019C14.0797 4.97209 14.1811 4.87074 14.3109 4.83927L15.3113 4.59668C15.6749 4.50852 15.6749 3.99144 15.3113 3.90328L14.3109 3.66069C14.1811 3.62922 14.0797 3.52787 14.0483 3.39806L13.8057 2.39766Z" fill="var(--fill-0, white)"/>
<path d="M4.95898 16.2916C4.56778 16.2916 4.25065 15.9745 4.25065 15.5833C4.25065 15.1921 4.56778 14.875 4.95898 14.875C5.35019 14.875 5.66732 15.1921 5.66732 15.5833C5.66732 15.9745 5.35019 16.2916 4.95898 16.2916Z" fill="var(--fill-0, white)"/>
<path d="M1.41732 13.4583C1.02612 13.4583 0.708984 13.1412 0.708984 12.75C0.708984 12.3588 1.02612 12.0416 1.41732 12.0416C1.80852 12.0416 2.12565 12.3588 2.12565 12.75C2.12565 13.1412 1.80852 13.4583 1.41732 13.4583Z" fill="var(--fill-0, white)"/>
<path d="M9.20898 2.12498C8.81778 2.12498 8.50065 1.80785 8.50065 1.41665C8.50065 1.02544 8.81778 0.708313 9.20898 0.708313C9.60019 0.708313 9.91732 1.02544 9.91732 1.41665C9.91732 1.80785 9.60019 2.12498 9.20898 2.12498Z" fill="var(--fill-0, white)"/>
<path d="M15.584 9.91665C15.1928 9.91665 14.8757 9.59951 14.8757 9.20831C14.8757 8.81711 15.1928 8.49998 15.584 8.49998C15.9752 8.49998 16.2923 8.81711 16.2923 9.20831C16.2923 9.59951 15.9752 9.91665 15.584 9.91665Z" fill="var(--fill-0, white)"/>
</g>
</g>
</svg>
