<svg preserveAspectRatio="none" width="100%" height="100%" overflow="visible" style="display: block;" viewBox="0 0 25 24" fill="none" xmlns="http://www.w3.org/2000/svg">
<g id="TeFFctk0IZbLbLfEaDK7CzFyrUc.svg">
<path id="Vector" d="M12.478 6.727C13.491 4.909 13.998 4 14.755 4C15.513 4 16.02 4.909 17.033 6.727L17.295 7.197C17.583 7.714 17.727 7.972 17.951 8.142C18.176 8.312 18.456 8.376 19.015 8.502L19.524 8.618C21.492 9.063 22.475 9.286 22.71 10.038C22.944 10.791 22.273 11.575 20.931 13.144L20.584 13.55C20.204 13.996 20.013 14.219 19.927 14.494C19.841 14.77 19.87 15.067 19.927 15.662L19.98 16.204C20.183 18.297 20.284 19.344 19.671 19.808C19.059 20.273 18.137 19.849 16.295 19.001L15.818 18.781C15.295 18.541 15.033 18.42 14.755 18.42C14.478 18.42 14.216 18.54 13.693 18.782L13.216 19.002C11.374 19.849 10.452 20.273 9.84 19.808C9.227 19.343 9.328 18.297 9.531 16.204L9.583 15.662C9.641 15.067 9.67 14.77 9.584 14.494C9.498 14.219 9.308 13.996 8.927 13.55L8.58 13.144C7.238 11.575 6.567 10.791 6.801 10.038C7.036 9.286 8.019 9.063 9.987 8.618L10.497 8.503C11.055 8.376 11.335 8.313 11.559 8.143C11.784 7.972 11.928 7.713 12.216 7.197L12.478 6.727Z" fill="var(--fill-0, #00B8B2)"/>
<path id="Vector_2" fill-rule="evenodd" clip-rule="evenodd" d="M9.412 5.202C7.43 4.632 5.305 4.933 3.254 6.134L3.046 6.256C2.87468 6.35156 2.67273 6.3762 2.48346 6.32462C2.29418 6.27305 2.13265 6.14936 2.0335 5.98009C1.93434 5.81082 1.90546 5.60944 1.95303 5.41912C2.00061 5.2288 2.12086 5.0647 2.288 4.962L2.496 4.84C4.856 3.457 7.404 3.063 9.827 3.761L10.035 3.821C10.2218 3.87968 10.3782 4.00909 10.4709 4.18157C10.5636 4.35405 10.5851 4.55593 10.5309 4.74408C10.4767 4.93223 10.3511 5.09173 10.1809 5.18851C10.0107 5.28528 9.8094 5.31166 9.62 5.262L9.412 5.202ZM5.502 9.936C5.5189 10.1341 5.45645 10.3308 5.32838 10.4829C5.20031 10.635 5.01709 10.73 4.819 10.747C4.666 10.761 4.549 10.767 4.45 10.774C4.30107 10.7798 4.15272 10.7958 4.006 10.822C3.809 10.86 3.554 10.939 3.091 11.171C3.00279 11.2159 2.90656 11.2429 2.80787 11.2504C2.70917 11.258 2.60996 11.2459 2.51596 11.2149C2.42195 11.1839 2.33501 11.1346 2.26015 11.0699C2.18528 11.0051 2.12398 10.9262 2.07976 10.8376C2.03555 10.7491 2.0093 10.6526 2.00254 10.5539C1.99577 10.4551 2.00862 10.356 2.04034 10.2622C2.07206 10.1685 2.12203 10.0819 2.18736 10.0076C2.2527 9.93321 2.3321 9.87252 2.421 9.829C2.957 9.561 3.347 9.421 3.723 9.349C3.97 9.301 4.225 9.285 4.453 9.269L4.692 9.253C4.88994 9.23638 5.08639 9.29895 5.23824 9.427C5.39009 9.55504 5.48495 9.7381 5.502 9.936ZM6.584 15.856C6.00415 15.7189 5.40093 15.7136 4.81875 15.8405C4.23658 15.9673 3.69026 16.2231 3.22 16.589C3.06379 16.7122 2.86503 16.7683 2.66747 16.7449C2.4699 16.7216 2.28969 16.6207 2.1665 16.4645C2.04331 16.3083 1.98721 16.1095 2.01056 15.912C2.03391 15.7144 2.13479 15.5342 2.291 15.411C2.93843 14.9055 3.69113 14.5518 4.49354 14.3761C5.29595 14.2005 6.12757 14.2073 6.927 14.396C7.11748 14.4444 7.28133 14.5657 7.38331 14.7337C7.48528 14.9017 7.51723 15.1031 7.47228 15.2944C7.42733 15.4857 7.30908 15.6518 7.14295 15.7568C6.97683 15.8618 6.77612 15.8974 6.584 15.856Z" fill="var(--fill-0, #00B8B2)"/>
</g>
</svg>
