<svg preserveAspectRatio="none" width="100%" height="100%" overflow="visible" style="display: block;" viewBox="0 0 24 24" fill="none" xmlns="http://www.w3.org/2000/svg">
<g id="q8PCK0iIVKHMPnxvnPcndYxbRHo.svg">
<path id="Vector" d="M10.08 7.897C11.157 5.966 11.695 5 12.5 5C13.305 5 13.843 5.966 14.92 7.897L15.198 8.397C15.504 8.946 15.658 9.22 15.896 9.401C16.134 9.582 16.431 9.649 17.026 9.784L17.566 9.906C19.657 10.379 20.703 10.616 20.951 11.416C21.2 12.216 20.487 13.049 19.061 14.716L18.693 15.146C18.288 15.62 18.086 15.857 17.994 16.15C17.904 16.443 17.934 16.759 17.995 17.39L18.051 17.966C18.267 20.19 18.374 21.302 17.723 21.796C17.072 22.291 16.093 21.84 14.136 20.939L13.629 20.705C13.073 20.449 12.795 20.321 12.5 20.321C12.205 20.321 11.927 20.449 11.37 20.705L10.864 20.939C8.907 21.839 7.928 22.291 7.277 21.796C6.626 21.302 6.734 20.19 6.949 17.966L7.005 17.391C7.066 16.759 7.097 16.443 7.005 16.151C6.915 15.857 6.712 15.621 6.307 15.147L5.938 14.715C4.513 13.049 3.8 12.215 4.048 11.415C4.298 10.615 5.343 10.379 7.434 9.906L7.974 9.784C8.569 9.649 8.866 9.582 9.104 9.401C9.343 9.221 9.496 8.946 9.802 8.397L10.08 7.897ZM4.868 2.5C4.898 2.395 5.085 2.394 5.116 2.5C5.256 2.982 5.516 3.694 5.909 4.085C6.302 4.475 7.017 4.731 7.499 4.868C7.606 4.898 7.606 5.085 7.501 5.116C7.019 5.256 6.306 5.516 5.915 5.909C5.525 6.302 5.27 7.017 5.133 7.499C5.103 7.606 4.915 7.606 4.884 7.501C4.744 7.019 4.484 6.306 4.091 5.915C3.698 5.525 2.984 5.27 2.501 5.133C2.395 5.103 2.394 4.915 2.5 4.884C2.982 4.744 3.694 4.484 4.085 4.091C4.475 3.698 4.731 2.983 4.868 2.5Z" fill="var(--fill-0, #00B8B2)"/>
<path id="Vector_2" fill-rule="evenodd" clip-rule="evenodd" d="M19 3.25C19.1989 3.25 19.3897 3.32902 19.5303 3.46967C19.671 3.61032 19.75 3.80109 19.75 4V4.25H20C20.1989 4.25 20.3897 4.32902 20.5303 4.46967C20.671 4.61032 20.75 4.80109 20.75 5C20.75 5.19891 20.671 5.38968 20.5303 5.53033C20.3897 5.67098 20.1989 5.75 20 5.75H19.75V6C19.75 6.19891 19.671 6.38968 19.5303 6.53033C19.3897 6.67098 19.1989 6.75 19 6.75C18.8011 6.75 18.6103 6.67098 18.4697 6.53033C18.329 6.38968 18.25 6.19891 18.25 6V5.75H18C17.8011 5.75 17.6103 5.67098 17.4697 5.53033C17.329 5.38968 17.25 5.19891 17.25 5C17.25 4.80109 17.329 4.61032 17.4697 4.46967C17.6103 4.32902 17.8011 4.25 18 4.25H18.25V4C18.25 3.80109 18.329 3.61032 18.4697 3.46967C18.6103 3.32902 18.8011 3.25 19 3.25Z" fill="var(--fill-0, #00B8B2)"/>
</g>
</svg>
