<svg preserveAspectRatio="none" width="100%" height="100%" overflow="visible" style="display: block;" viewBox="0 0 15.5298 15.5298" fill="none" xmlns="http://www.w3.org/2000/svg">
<g id="Claude_Logo_0 2" clip-path="url(#clip0_0_11)">
<path id="Vector" d="M3.04302 10.1992L6.0939 8.50645L6.14494 8.35892L6.0939 8.27738H5.94469L5.43425 8.24633L3.69089 8.19974L2.1792 8.13762L0.71462 8.05997L0.34553 7.98232L0 7.53195L0.0353383 7.30677L0.34553 7.101L0.789223 7.13983L1.77084 7.20583L3.24327 7.30677L4.31128 7.36889L5.89365 7.53195H6.14494L6.18028 7.43101L6.0939 7.36889L6.02715 7.30677L4.50367 6.28569L2.85455 5.20637L1.99073 4.58518L1.52347 4.2707L1.28789 3.97563L1.1858 3.33115L1.60986 2.86914L2.1792 2.90796L2.32448 2.94679L2.90167 3.3855L4.13458 4.32894L5.74444 5.50144L5.98003 5.69556L6.07427 5.62956L6.08605 5.58297L5.98003 5.40826L5.10443 3.84363L4.16992 2.25183L3.75372 1.59181L3.64377 1.1958C3.60451 1.03274 3.57702 0.896854 3.57702 0.729909L4.05998 0.08154L4.32698 -0.00387387L4.97093 0.08154L5.24185 0.314487L5.64235 1.2191L6.29022 2.64395L7.2954 4.5813L7.58989 5.1559L7.74695 5.68779L7.80584 5.85086H7.90793V5.75768L7.99039 4.66671L8.14352 3.32727L8.29273 1.60346L8.34377 1.11815L8.58721 0.535786L9.07017 0.221308L9.44711 0.399901L9.75731 0.838617L9.71411 1.12204L9.52957 2.30618L9.16833 4.16199L8.93274 5.40437H9.07017L9.22723 5.24908L9.86332 4.41435L10.9313 3.09432L11.4025 2.57019L11.9522 1.9917L12.3056 1.71605H12.9731L13.4639 2.43819L13.244 3.18361L12.5569 4.04552L11.9875 4.77542L11.1708 5.8625L10.6604 6.73217L10.7075 6.80206L10.8292 6.79041L12.6747 6.40216L13.672 6.22357L14.8617 6.02168L15.3997 6.27016L15.4586 6.52252L15.2465 7.03888L13.9743 7.34948L12.4823 7.64455L10.2599 8.16479L10.2324 8.18421L10.2638 8.22303L11.2651 8.31621L11.6931 8.3395H12.7414L14.6929 8.48315L15.2033 8.81704L15.5096 9.2247L15.4586 9.5353L14.6733 9.93131L13.6131 9.68283L11.1394 9.10046L10.2913 8.89081H10.1735V8.9607L10.8803 9.64401L12.176 10.801L13.7977 12.2918L13.8801 12.6607L13.672 12.9518L13.4521 12.9208L12.0268 11.8609L11.4771 11.3833L10.2324 10.3467H10.15V10.4554L10.4366 10.8709L11.9522 13.1227L12.0307 13.8138L11.9208 14.0389L11.5281 14.1748L11.0962 14.0972L10.2089 12.8664L9.29398 11.4804L8.5558 10.238L8.46549 10.2885L8.02965 14.928L7.82548 15.1648L7.3543 15.3434L6.96165 15.0484L6.75355 14.5708L6.96165 13.6274L7.21295 12.3967L7.41712 11.4183L7.60167 10.2031L7.71161 9.7993L7.70376 9.77213L7.61345 9.78377L6.6868 11.0417L5.27719 12.9247L4.16207 14.1049L3.89507 14.2098L3.43174 13.9729L3.47494 13.5497L3.73408 13.1731L5.27719 11.2319L6.20777 10.0284L6.80852 9.33341L6.80459 9.23247H6.76925L2.67001 11.8648L1.93968 11.9579L1.62556 11.6668L1.66483 11.1892L1.81403 11.0339L3.04695 10.1953L3.04302 10.1992Z" fill="var(--fill-0, #D97757)"/>
</g>
<defs>
<clipPath id="clip0_0_11">
<rect width="15.5298" height="15.5298" fill="white"/>
</clipPath>
</defs>
</svg>
