<svg preserveAspectRatio="none" width="100%" height="100%" overflow="visible" style="display: block;" viewBox="0 0 220.861 49.3066" fill="none" xmlns="http://www.w3.org/2000/svg">
<g id="Group 469275">
<path id="Vector" d="M68.9719 7.69704C68.1669 4.67189 65.7777 2.28632 62.7415 1.46663C57.2499 0 35.2211 0 35.2211 0C35.2211 0 13.2033 0 7.70071 1.4703C4.67189 2.27529 2.28632 4.66454 1.4703 7.69704C0 13.1886 0 24.6533 0 24.6533C0 24.6533 0 36.118 1.4703 41.6059C2.27529 44.631 4.66454 47.0166 7.70071 47.8363C13.2033 49.3066 35.2211 49.3066 35.2211 49.3066C35.2211 49.3066 57.2499 49.3066 62.7415 47.8363C65.7667 47.0313 68.1522 44.6421 68.9719 41.6059C70.4422 36.1143 70.4422 24.6533 70.4422 24.6533C70.4422 24.6533 70.4422 13.1886 68.9719 7.70071V7.69704Z" fill="var(--fill-0, #FF0000)"/>
<path id="Vector_2" d="M28.1822 14.0857V35.2213L46.4838 24.6535L28.1822 14.0857Z" fill="var(--fill-0, white)"/>
<path id="Vector_3" d="M113.651 15.6881C112.272 14.7471 110.446 14.2766 108.159 14.2766C105.873 14.2766 103.969 14.7471 102.546 15.666C101.124 16.585 100.073 18.0516 99.3963 20.0696C98.7236 22.0876 98.3855 24.7562 98.3855 28.0827V32.5635C98.3855 35.8569 98.6869 38.4925 99.2713 40.4774C99.8558 42.4623 100.852 43.9179 102.241 44.8589C103.631 45.7999 105.557 46.2704 108.001 46.2557C110.387 46.2557 112.284 45.7852 113.673 44.8662C115.073 43.9473 116.084 42.4807 116.698 40.4847C117.316 38.4888 117.628 35.8459 117.628 32.5488V28.068C117.628 24.7525 117.312 22.0839 116.676 20.0916C116.036 18.0994 115.029 16.6291 113.651 15.6881ZM110.637 35.0887C110.637 37.364 110.435 39.0071 110.052 40.0179C109.663 41.0251 108.99 41.5286 108.001 41.5286C107.012 41.5286 106.355 41.0251 105.983 40.0179C105.616 39.0218 105.436 37.375 105.436 35.0887V25.4619C105.436 23.2417 105.638 21.6171 106.02 20.5989C106.413 19.577 107.075 19.0624 108.016 19.0624C108.957 19.0624 109.674 19.577 110.056 20.5989C110.449 21.6318 110.64 23.2454 110.64 25.4619V35.0887H110.637Z" fill="var(--fill-0, white)"/>
<path id="Vector_4" d="M133.121 39.4228C132.853 39.9925 132.438 40.4667 131.89 40.8343C131.342 41.2019 130.758 41.382 130.151 41.382C129.445 41.382 128.942 41.0806 128.64 40.4961C128.339 39.9117 128.192 38.9266 128.192 37.5482V14.8798H121.245V37.9415C121.245 40.8012 121.726 42.8964 122.704 44.238C123.678 45.5834 125.193 46.256 127.244 46.256C130.192 46.256 132.408 44.8335 133.889 41.9738H134.036L134.643 45.7488H140.076V14.8798H133.125V39.4191L133.121 39.4228Z" fill="var(--fill-0, white)"/>
<path id="Vector_5" d="M93.2652 3.48047L90.3944 16.478C89.5894 20.2787 89.0712 22.9804 88.8359 24.5903H88.6337C88.2956 22.3408 87.781 19.6281 87.0752 16.4338L84.3074 3.4915H77.4043L85.3182 32.0558V45.759H92.1625V32.0558L100.165 3.48047H93.2615H93.2652Z" fill="var(--fill-0, white)"/>
<path id="Vector_6" d="M168.776 39.4228C168.507 39.9925 168.092 40.4667 167.544 40.8343C166.996 41.2019 166.412 41.382 165.806 41.382C165.1 41.382 164.596 41.0806 164.295 40.4961C163.993 39.9117 163.846 38.9266 163.846 37.5482V14.8798H156.899V37.9415C156.899 40.8012 157.381 42.8964 158.358 44.238C159.333 45.5834 160.847 46.256 162.898 46.256C165.846 46.256 168.062 44.8335 169.544 41.9738H169.691L170.297 45.7488H175.73V14.8798H168.779V39.4191L168.776 39.4228Z" fill="var(--fill-0, white)"/>
<path id="Vector_7" d="M209.22 32.6331H220.861V27.3437C220.861 24.0907 220.593 21.536 220.078 19.6908C219.553 17.8419 218.656 16.4855 217.377 15.6107C216.098 14.7359 214.271 14.2985 211.885 14.2985C208.423 14.2985 205.978 15.3644 204.556 17.4927C203.133 19.632 202.416 23.0063 202.416 27.6451V33.0375C202.416 37.5403 203.1 40.8595 204.478 43.0098C205.853 45.1638 208.253 46.2371 211.683 46.2371C214.543 46.2371 216.748 45.5314 218.307 44.1199C219.865 42.7084 220.648 40.5801 220.648 37.7204C220.648 37.2499 220.633 36.8786 220.6 36.6103L214.605 36.2611C214.572 38.1431 214.359 39.4884 213.977 40.2934C213.598 41.0984 212.881 41.5027 211.837 41.5027C211.065 41.5027 210.492 41.2675 210.121 40.8191C209.753 40.3706 209.503 39.6428 209.393 38.654C209.272 37.6579 209.213 36.1802 209.213 34.1953V32.6295L209.22 32.6331ZM209.22 28.5089V26.2925C209.22 24.2855 209.279 22.7711 209.4 21.786C209.522 20.8009 209.757 20.0841 210.106 19.6467C210.455 19.2093 211.003 18.9851 211.742 18.9961C212.484 18.9961 213.032 19.2093 213.377 19.6246C213.727 20.04 213.969 20.7678 214.105 21.7897C214.238 22.8115 214.307 24.3112 214.307 26.2961V28.5126H209.22V28.5089Z" fill="var(--fill-0, white)"/>
<path id="Vector_8" d="M196.694 15.5889C195.753 14.7141 194.462 14.2767 192.816 14.2767C191.536 14.2767 190.349 14.6332 189.239 15.361C188.129 16.0778 187.28 17.0298 186.673 18.2097H186.615V1.94083H179.914V45.7632H185.652L186.357 42.841H186.504C187.041 43.8849 187.85 44.7009 188.927 45.3074C190 45.9139 191.191 46.2153 192.503 46.2153C194.856 46.2153 196.583 45.131 197.69 42.966C198.8 40.8009 199.347 37.4192 199.347 32.8135V27.9284C199.355 24.4769 199.145 21.7752 198.73 19.8271C198.304 17.8789 197.631 16.4674 196.69 15.5926L196.694 15.5889ZM192.077 37.7096C191.897 38.9888 191.584 39.893 191.147 40.4334C190.709 40.9737 190.125 41.2384 189.386 41.2384C188.813 41.2384 188.287 41.1024 187.795 40.834C187.313 40.5657 186.909 40.1614 186.607 39.6247V22.0877C186.842 21.2459 187.247 20.5659 187.817 20.0256C188.39 19.4889 189.004 19.2206 189.677 19.2206C190.382 19.2206 190.93 19.4999 191.312 20.0476C191.691 20.5953 191.959 21.5363 192.117 22.8375C192.264 24.1498 192.341 26.0097 192.341 28.4283V32.4202H192.352C192.352 34.6771 192.264 36.4341 192.073 37.7133L192.077 37.7096Z" fill="var(--fill-0, white)"/>
<path id="Vector_9" d="M158.955 3.49599H138.356V9.08681H145.259V45.7562H152.063V9.08681H158.955V3.49599Z" fill="var(--fill-0, white)"/>
</g>
</svg>
