<svg width="15" height="16" viewBox="0 0 15 16" fill="none" xmlns="http://www.w3.org/2000/svg">
<g clip-path="url(#clip0_30_57)">
<path d="M7.81253 0C7.25941 0 6.81253 0.446875 6.81253 1V1.55938C4.54691 1.91875 2.81253 3.88125 2.81253 6.25V7.29375C2.81253 8.7125 2.32816 10.0906 1.44378 11.1969L0.978159 11.7812C0.796909 12.0063 0.762534 12.3156 0.887534 12.575C1.01253 12.8344 1.27503 13 1.56253 13H14.0625C14.35 13 14.6125 12.8344 14.7375 12.575C14.8625 12.3156 14.8282 12.0063 14.6469 11.7812L14.1813 11.2C13.2969 10.0906 12.8125 8.7125 12.8125 7.29375V6.25C12.8125 3.88125 11.0782 1.91875 8.81253 1.55938V1C8.81253 0.446875 8.36566 0 7.81253 0ZM7.81253 3H8.06253C9.85628 3 11.3125 4.45625 11.3125 6.25V7.29375C11.3125 8.79062 11.7469 10.25 12.5532 11.5H3.07191C3.87816 10.25 4.31253 8.79062 4.31253 7.29375V6.25C4.31253 4.45625 5.76878 3 7.56253 3H7.81253ZM9.81253 14H7.81253H5.81253C5.81253 14.5312 6.02191 15.0406 6.39691 15.4156C6.77191 15.7906 7.28128 16 7.81253 16C8.34378 16 8.85316 15.7906 9.22816 15.4156C9.60316 15.0406 9.81253 14.5312 9.81253 14Z" fill="white"/>
</g>
<defs>
<clipPath id="clip0_30_57">
<path d="M0.8125 0H14.8125V16H0.8125V0Z" fill="white"/>
</clipPath>
</defs>
</svg>
