<svg width="11" height="10" viewBox="0 0 11 10" fill="none" xmlns="http://www.w3.org/2000/svg">
<g clip-path="url(#clip0_3_324)">
<path d="M5.2137 0.179372C5.47815 0.0569087 5.78342 0.0569087 6.04787 0.179372L9.92764 1.97195C10.0785 2.04116 10.1743 2.19202 10.1743 2.35886C10.1743 2.52569 10.0785 2.67655 9.92764 2.74577L6.04787 4.53834C5.78342 4.66081 5.47815 4.66081 5.2137 4.53834L1.33394 2.74577C1.18308 2.67478 1.08723 2.52392 1.08723 2.35886C1.08723 2.1938 1.18308 2.04116 1.33394 1.97195L5.2137 0.179372ZM8.98343 3.80712L9.92764 4.24372C10.0785 4.31294 10.1743 4.4638 10.1743 4.63064C10.1743 4.79747 10.0785 4.94833 9.92764 5.01755L6.04787 6.81012C5.78342 6.93258 5.47815 6.93258 5.2137 6.81012L1.33394 5.01755C1.18308 4.94655 1.08723 4.79569 1.08723 4.63064C1.08723 4.46558 1.18308 4.31294 1.33394 4.24372L2.27814 3.80712L4.97588 5.05304C5.39119 5.24472 5.87039 5.24472 6.2857 5.05304L8.98343 3.80712ZM6.2857 7.32482L8.98343 6.07889L9.92764 6.5155C10.0785 6.58472 10.1743 6.73558 10.1743 6.90241C10.1743 7.06925 10.0785 7.22011 9.92764 7.28932L6.04787 9.0819C5.78342 9.20436 5.47815 9.20436 5.2137 9.0819L1.33394 7.28932C1.18308 7.21833 1.08723 7.06747 1.08723 6.90241C1.08723 6.73735 1.18308 6.58472 1.33394 6.5155L2.27814 6.07889L4.97588 7.32482C5.39119 7.5165 5.87039 7.5165 6.2857 7.32482Z" fill="white"/>
</g>
<defs>
<clipPath id="clip0_3_324">
<path d="M0.519165 0.0870972H10.7422V9.1742H0.519165V0.0870972Z" fill="white"/>
</clipPath>
</defs>
</svg>
