<svg width="18" height="17" viewBox="0 0 18 17" fill="none" xmlns="http://www.w3.org/2000/svg">
<g clip-path="url(#clip0_91_5054)">
<path d="M8.26562 0.662695C8.73125 0.44707 9.26875 0.44707 9.73438 0.662695L16.5656 3.81895C16.8312 3.94082 17 4.20645 17 4.5002C17 4.79395 16.8312 5.05957 16.5656 5.18145L9.73438 8.3377C9.26875 8.55332 8.73125 8.55332 8.26562 8.3377L1.43438 5.18145C1.16875 5.05645 1 4.79082 1 4.5002C1 4.20957 1.16875 3.94082 1.43438 3.81895L8.26562 0.662695ZM14.9031 7.0502L16.5656 7.81895C16.8312 7.94082 17 8.20645 17 8.5002C17 8.79395 16.8312 9.05957 16.5656 9.18145L9.73438 12.3377C9.26875 12.5533 8.73125 12.5533 8.26562 12.3377L1.43438 9.18145C1.16875 9.05645 1 8.79082 1 8.5002C1 8.20957 1.16875 7.94082 1.43438 7.81895L3.09687 7.0502L7.84688 9.24395C8.57812 9.58144 9.42188 9.58144 10.1531 9.24395L14.9031 7.0502ZM10.1531 13.2439L14.9031 11.0502L16.5656 11.8189C16.8312 11.9408 17 12.2064 17 12.5002C17 12.7939 16.8312 13.0596 16.5656 13.1814L9.73438 16.3377C9.26875 16.5533 8.73125 16.5533 8.26562 16.3377L1.43438 13.1814C1.16875 13.0564 1 12.7908 1 12.5002C1 12.2096 1.16875 11.9408 1.43438 11.8189L3.09687 11.0502L7.84688 13.2439C8.57812 13.5814 9.42188 13.5814 10.1531 13.2439Z" fill="white"/>
</g>
<defs>
<clipPath id="clip0_91_5054">
<path d="M0 0.5H18V16.5H0V0.5Z" fill="white"/>
</clipPath>
</defs>
</svg>
