<svg width="14" height="14" viewBox="0 0 14 14" fill="none" xmlns="http://www.w3.org/2000/svg">
<g clip-path="url(#clip0_6_12)">
<path d="M7.4375 0H10.8309C11.1781 0 11.5117 0.139453 11.7578 0.385547L13.6145 2.24219C13.8605 2.48828 14 2.82188 14 3.16914V9.1875C14 9.91211 13.4121 10.5 12.6875 10.5H7.4375C6.71289 10.5 6.125 9.91211 6.125 9.1875V1.3125C6.125 0.587891 6.71289 0 7.4375 0ZM1.3125 3.5H5.25V5.25H1.75V12.25H7V11.375H8.75V12.6875C8.75 13.4121 8.16211 14 7.4375 14H1.3125C0.587891 14 0 13.4121 0 12.6875V4.8125C0 4.08789 0.587891 3.5 1.3125 3.5Z" fill="#9CA3AF"/>
</g>
<defs>
<clipPath id="clip0_6_12">
<path d="M0 0H14V14H0V0Z" fill="white"/>
</clipPath>
</defs>
</svg>
