<svg width="14" height="14" viewBox="0 0 14 14" fill="none" xmlns="http://www.w3.org/2000/svg">
<path d="M6.86003 3.17773L6.34523 2.66293L6.86003 2.14813L7.37483 2.66293L6.86003 3.17773ZM7.58807 8.09199C7.58807 8.49408 7.26211 8.82003 6.86003 8.82003C6.45794 8.82003 6.13199 8.49408 6.13199 8.09199L6.86003 8.09199L7.58807 8.09199ZM4.12988 5.90788L3.61508 5.39308L6.34523 2.66293L6.86003 3.17773L7.37483 3.69254L4.64468 6.42268L4.12988 5.90788ZM6.86003 3.17773L7.37483 2.66293L10.105 5.39308L9.59017 5.90788L9.07537 6.42268L6.34523 3.69254L6.86003 3.17773ZM6.86003 3.17773L7.58807 3.17773L7.58807 8.09199L6.86003 8.09199L6.13199 8.09199L6.13199 3.17773L6.86003 3.17773Z" fill="url(#paint0_linear_194_3620)"/>
<path d="M3.0376 9.18359L3.0376 9.72962C3.0376 10.3327 3.52653 10.8217 4.12966 10.8217L9.58995 10.8217C10.1931 10.8217 10.682 10.3328 10.682 9.72962V9.18359" stroke="url(#paint1_linear_194_3620)" stroke-width="1.45608"/>
<defs>
<linearGradient id="paint0_linear_194_3620" x1="4.12988" y1="5.63486" x2="9.59017" y2="5.63486" gradientUnits="userSpaceOnUse">
<stop stop-color="white"/>
<stop offset="1" stop-color="#B7FFFD"/>
</linearGradient>
<linearGradient id="paint1_linear_194_3620" x1="6.8598" y1="9.18359" x2="6.8598" y2="10.8217" gradientUnits="userSpaceOnUse">
<stop stop-color="white"/>
<stop offset="1" stop-color="#B7FFFD"/>
</linearGradient>
</defs>
</svg>
