<svg width="13" height="14" viewBox="0 0 13 14" fill="none" xmlns="http://www.w3.org/2000/svg">
<g clip-path="url(#clip0_85_698)">
<path d="M5.7174 2.96935L1.29118 10.3586C1.19992 10.5166 1.15164 10.6958 1.15113 10.8783C1.15062 11.0608 1.1979 11.2402 1.28827 11.3988C1.37864 11.5573 1.50895 11.6895 1.66624 11.782C1.82353 11.8746 2.0023 11.9243 2.18479 11.9263H11.0372C11.2197 11.9243 11.3985 11.8746 11.5558 11.782C11.7131 11.6895 11.8434 11.5573 11.9337 11.3988C12.0241 11.2402 12.0714 11.0608 12.0709 10.8783C12.0704 10.6958 12.0221 10.5166 11.9308 10.3586L7.50462 2.96935C7.41146 2.81577 7.28028 2.68879 7.12376 2.60067C6.96723 2.51254 6.79064 2.46625 6.61101 2.46625C6.43138 2.46625 6.25479 2.51254 6.09826 2.60067C5.94174 2.68879 5.81056 2.81577 5.7174 2.96935V2.96935Z" stroke="#F93232" stroke-width="1.25418" stroke-linecap="round" stroke-linejoin="round"/>
<path d="M6.61108 5.6554V7.7457" stroke="#F93232" stroke-width="1.25418" stroke-linecap="round" stroke-linejoin="round"/>
<path d="M6.61108 9.836H6.61631" stroke="#F93232" stroke-width="1.25418" stroke-linecap="round" stroke-linejoin="round"/>
</g>
<defs>
<clipPath id="clip0_85_698">
<rect width="12.5418" height="12.5418" fill="white" transform="translate(0.340088 0.952209)"/>
</clipPath>
</defs>
</svg>
