<svg width="17" height="16" viewBox="0 0 17 16" fill="none" xmlns="http://www.w3.org/2000/svg">
<g clip-path="url(#clip0_29_336)">
<path d="M9.26562 1C9.26562 0.446875 8.81875 0 8.26562 0C7.7125 0 7.26562 0.446875 7.26562 1V8.58438L4.97188 6.29063C4.58125 5.9 3.94688 5.9 3.55625 6.29063C3.16563 6.68125 3.16563 7.31563 3.55625 7.70625L7.55625 11.7063C7.94688 12.0969 8.58125 12.0969 8.97188 11.7063L12.9719 7.70625C13.3625 7.31563 13.3625 6.68125 12.9719 6.29063C12.5813 5.9 11.9469 5.9 11.5562 6.29063L9.26562 8.58438V1ZM2.26562 11C1.1625 11 0.265625 11.8969 0.265625 13V14C0.265625 15.1031 1.1625 16 2.26562 16H14.2656C15.3687 16 16.2656 15.1031 16.2656 14V13C16.2656 11.8969 15.3687 11 14.2656 11H11.0938L9.67813 12.4156C8.89688 13.1969 7.63125 13.1969 6.85 12.4156L5.4375 11H2.26562ZM13.7656 12.75C13.9645 12.75 14.1553 12.829 14.296 12.9697C14.4366 13.1103 14.5156 13.3011 14.5156 13.5C14.5156 13.6989 14.4366 13.8897 14.296 14.0303C14.1553 14.171 13.9645 14.25 13.7656 14.25C13.5667 14.25 13.3759 14.171 13.2353 14.0303C13.0946 13.8897 13.0156 13.6989 13.0156 13.5C13.0156 13.3011 13.0946 13.1103 13.2353 12.9697C13.3759 12.829 13.5667 12.75 13.7656 12.75Z" fill="#E5E7EB"/>
</g>
<defs>
<clipPath id="clip0_29_336">
<path d="M0.265625 0H16.2656V16H0.265625V0Z" fill="white"/>
</clipPath>
</defs>
</svg>
