<svg width="14" height="14" viewBox="0 0 14 14" fill="none" xmlns="http://www.w3.org/2000/svg">
<path d="M3.40059 7.9596L3.43559 7.8896C3.58142 7.60668 3.81184 7.37626 4.09475 7.23043L4.16475 7.19543C4.44184 7.05543 4.44184 6.65876 4.16475 6.51585L4.09475 6.48085C3.81184 6.33501 3.58142 6.1046 3.43559 5.82168L3.40059 5.75168C3.26059 5.4746 2.86392 5.4746 2.721 5.75168L2.686 5.82168C2.54017 6.1046 2.30975 6.33501 2.02684 6.48085L1.95684 6.51585C1.67975 6.65585 1.67975 7.05251 1.95684 7.19543L2.02684 7.23043C2.30975 7.37626 2.54017 7.60668 2.686 7.8896L2.721 7.9596C2.861 8.23668 3.25767 8.23668 3.40059 7.9596Z" fill="url(#paint0_linear_194_3627)"/>
<path d="M11.751 10.3075L11.681 10.2725C11.3981 10.1267 11.1677 9.89626 11.0218 9.61335L10.9868 9.54335C10.8468 9.26626 10.4502 9.26626 10.3073 9.54335L10.2723 9.61335C10.1264 9.89626 9.896 10.1267 9.61309 10.2725L9.54309 10.3075C9.266 10.4475 9.266 10.8442 9.54309 10.9871L9.61309 11.0221C9.896 11.1679 10.1264 11.3983 10.2723 11.6813L10.3073 11.7513C10.4473 12.0283 10.8439 12.0283 10.9868 11.7513L11.0218 11.6813C11.1677 11.3983 11.3981 11.1679 11.681 11.0221L11.751 10.9871C12.0281 10.8471 12.0281 10.4504 11.751 10.3075Z" fill="url(#paint1_linear_194_3627)"/>
<path d="M3.62225 4.31085L3.71559 4.35751C4.00725 4.50626 4.24059 4.7396 4.38934 5.03126L4.436 5.1246C4.59642 5.4396 4.91725 5.63501 5.27017 5.63501C5.62309 5.63501 5.94392 5.4396 6.10725 5.1246L6.15392 5.03126C6.30267 4.7396 6.536 4.50626 6.82767 4.35751L6.921 4.31085C7.236 4.15043 7.43142 3.8296 7.43142 3.47668C7.43142 3.12376 7.236 2.80293 6.921 2.6396L6.82767 2.59293C6.536 2.44418 6.30267 2.21085 6.15392 1.91918L6.10725 1.82585C5.94684 1.51085 5.626 1.31543 5.27017 1.31543C4.91434 1.31543 4.59642 1.51085 4.43309 1.82585L4.38642 1.91918C4.23767 2.21085 4.00434 2.44418 3.71267 2.59293L3.61934 2.6396C3.30434 2.80001 3.10892 3.12085 3.10892 3.47668C3.10892 3.83251 3.30434 4.15043 3.61934 4.31376L3.62225 4.31085ZM4.01892 3.41835L4.11225 3.37168C4.57017 3.13835 4.93475 2.77376 5.16809 2.31585L5.21475 2.22251C5.21475 2.22251 5.23225 2.18751 5.27017 2.18751C5.30809 2.18751 5.32267 2.21085 5.32559 2.22251L5.37225 2.31585C5.60559 2.77376 5.97017 3.13835 6.42809 3.37168L6.52142 3.41835C6.52142 3.41835 6.55642 3.43585 6.55642 3.47376C6.55642 3.51168 6.53017 3.52626 6.52142 3.52918L6.42809 3.57585C5.97017 3.80918 5.60559 4.17376 5.37225 4.63168L5.32559 4.72501C5.32559 4.72501 5.30809 4.76001 5.27017 4.76001C5.23225 4.76001 5.21767 4.73376 5.21475 4.72501L5.16809 4.63168C4.93475 4.17376 4.57017 3.80918 4.11225 3.57585L4.01892 3.52918C4.01892 3.52918 3.98392 3.51168 3.98392 3.47376C3.98392 3.43585 4.01017 3.42126 4.01892 3.41835Z" fill="url(#paint2_linear_194_3627)"/>
<path d="M12.3343 3.6896L11.7685 3.12376C11.541 2.89626 11.2377 2.77085 10.9168 2.77085C10.596 2.77085 10.2927 2.89626 10.0652 3.12376L4.00725 9.18168C4.00725 9.18168 4.00142 9.19043 3.9985 9.19626C3.9635 9.23418 3.93434 9.27501 3.91392 9.32168V9.32751L3.071 11.3371C2.93975 11.6492 3.01267 12.005 3.25475 12.2442C3.41225 12.3988 3.61934 12.4804 3.83225 12.4804C3.94309 12.4804 4.05684 12.4571 4.16475 12.4104L6.1335 11.5471L6.14517 11.5413C6.19184 11.5208 6.22975 11.4917 6.26475 11.4596C6.26767 11.4567 6.2735 11.4538 6.27934 11.4508L12.3373 5.39293C12.5648 5.16543 12.6902 4.8621 12.6902 4.54126C12.6902 4.22043 12.5648 3.9171 12.3373 3.6896H12.3343ZM5.96725 10.5233L4.93475 9.49085L9.47309 4.95251L10.5056 5.98501L5.96725 10.5233ZM11.716 4.7746L11.1239 5.36668L10.0914 4.33418L10.6835 3.7421C10.806 3.61668 11.0248 3.61668 11.1502 3.7421L11.716 4.30793C11.7773 4.36918 11.8123 4.45376 11.8123 4.54126C11.8123 4.62876 11.7773 4.71043 11.716 4.7746Z" fill="url(#paint3_linear_194_3627)"/>
<defs>
<linearGradient id="paint0_linear_194_3627" x1="7.2196" y1="1.31543" x2="7.2196" y2="12.4804" gradientUnits="userSpaceOnUse">
<stop stop-color="white"/>
<stop offset="1" stop-color="#B7FFFD"/>
</linearGradient>
<linearGradient id="paint1_linear_194_3627" x1="7.2196" y1="1.31543" x2="7.2196" y2="12.4804" gradientUnits="userSpaceOnUse">
<stop stop-color="white"/>
<stop offset="1" stop-color="#B7FFFD"/>
</linearGradient>
<linearGradient id="paint2_linear_194_3627" x1="7.2196" y1="1.31543" x2="7.2196" y2="12.4804" gradientUnits="userSpaceOnUse">
<stop stop-color="white"/>
<stop offset="1" stop-color="#B7FFFD"/>
</linearGradient>
<linearGradient id="paint3_linear_194_3627" x1="7.2196" y1="1.31543" x2="7.2196" y2="12.4804" gradientUnits="userSpaceOnUse">
<stop stop-color="white"/>
<stop offset="1" stop-color="#B7FFFD"/>
</linearGradient>
</defs>
</svg>
