<svg width="14" height="14" viewBox="0 0 14 14" fill="none" xmlns="http://www.w3.org/2000/svg">
<g clip-path="url(#clip0_6_49)">
<path d="M2.87383 5.53984C3.08437 4.94375 3.42617 4.3832 3.90742 3.90468C5.61641 2.1957 8.38633 2.1957 10.0953 3.90468L10.5629 4.375H9.1875C8.70352 4.375 8.3125 4.76601 8.3125 5.25C8.3125 5.73398 8.70352 6.125 9.1875 6.125H12.6738H12.6848C13.1687 6.125 13.5598 5.73398 13.5598 5.25V1.75C13.5598 1.26601 13.1687 0.874997 12.6848 0.874997C12.2008 0.874997 11.8098 1.26601 11.8098 1.75V3.15L11.3312 2.66875C8.93867 0.276169 5.06133 0.276169 2.66875 2.66875C2.00156 3.33593 1.52031 4.1207 1.225 4.96015C1.06367 5.41679 1.3043 5.91445 1.7582 6.07578C2.21211 6.23711 2.7125 5.99648 2.87383 5.54258V5.53984ZM1.06641 7.91054C0.929688 7.95156 0.798437 8.02539 0.691797 8.13476C0.582422 8.24414 0.508594 8.37539 0.470313 8.51757C0.462109 8.55039 0.453906 8.58593 0.448437 8.62148C0.440234 8.66797 0.4375 8.71445 0.4375 8.76093V12.25C0.4375 12.734 0.828516 13.125 1.3125 13.125C1.79648 13.125 2.1875 12.734 2.1875 12.25V10.8527L2.66875 11.3312C5.06133 13.7211 8.93867 13.7211 11.3285 11.3312C11.9957 10.6641 12.4797 9.87929 12.775 9.04258C12.9363 8.58593 12.6957 8.08828 12.2418 7.92695C11.7879 7.76562 11.2875 8.00625 11.1262 8.46015C10.9156 9.05625 10.5738 9.61679 10.0926 10.0953C8.38359 11.8043 5.61367 11.8043 3.90469 10.0953L3.90195 10.0926L3.43437 9.625H4.8125C5.29648 9.625 5.6875 9.23398 5.6875 8.75C5.6875 8.26601 5.29648 7.875 4.8125 7.875H1.32344C1.27969 7.875 1.23594 7.87773 1.19219 7.8832C1.14844 7.88867 1.10742 7.89687 1.06641 7.91054Z" fill="#9CA3AF"/>
</g>
<defs>
<clipPath id="clip0_6_49">
<path d="M0 0H14V14H0V0Z" fill="white"/>
</clipPath>
</defs>
</svg>
