<svg width="16" height="19" viewBox="0 0 16 19" fill="none" xmlns="http://www.w3.org/2000/svg">
<g clip-path="url(#clip0_91_5083)">
<path d="M15.75 8.12965C14.2022 8.13335 12.6924 7.65066 11.4339 6.74977V13.0329C11.4335 14.1966 11.0778 15.3324 10.4144 16.2885C9.75098 17.2446 8.81151 17.9754 7.72158 18.3832C6.63165 18.7909 5.44322 18.8562 4.31518 18.5703C3.18715 18.2844 2.17329 17.6609 1.40917 16.7832C0.645045 15.9055 0.167085 14.8155 0.0391968 13.6588C-0.0886916 12.5022 0.139588 11.334 0.693511 10.3106C1.24743 9.28721 2.1006 8.45729 3.13892 7.93185C4.17725 7.40641 5.35124 7.21048 6.50392 7.37027V10.5305C5.97645 10.3646 5.41004 10.3696 4.88558 10.5447C4.36112 10.7199 3.90544 11.0564 3.58359 11.506C3.26174 11.9556 3.0902 12.4955 3.09346 13.0484C3.09671 13.6013 3.2746 14.1391 3.60172 14.5849C3.92884 15.0307 4.38847 15.3618 4.91495 15.5308C5.44144 15.6998 6.00786 15.6981 6.53334 15.526C7.05882 15.3539 7.51648 15.0201 7.84095 14.5724C8.16543 14.1247 8.34014 13.5858 8.34013 13.0329V0.75H11.4339C11.4317 1.01126 11.4536 1.27216 11.4993 1.52941C11.6068 2.10368 11.8303 2.64999 12.1562 3.13491C12.4821 3.61983 12.9034 4.03317 13.3945 4.34965C14.0932 4.81163 14.9124 5.05787 15.75 5.0577V8.12965Z" fill="white"/>
</g>
<defs>
<clipPath id="clip0_91_5083">
<path d="M0 0.75H15.75V18.75H0V0.75Z" fill="white"/>
</clipPath>
</defs>
</svg>
