<svg preserveAspectRatio="none" width="100%" height="100%" overflow="visible" style="display: block;" viewBox="0 0 25 24" fill="none" xmlns="http://www.w3.org/2000/svg">
<g id="9clBER5saFeQ2dCXggTEQSkeYjE.svg">
<path id="Vector" d="M6 12V5.65C5.99984 5.38445 6.07017 5.12362 6.20382 4.89416C6.33747 4.66469 6.52963 4.47482 6.76068 4.34394C6.99174 4.21305 7.25339 4.14586 7.51892 4.1492C7.78444 4.15255 8.04432 4.22633 8.272 4.363L13.5 7.5L18.856 10.714C19.078 10.8473 19.2617 11.0358 19.3893 11.2612C19.5168 11.4865 19.5839 11.7411 19.5839 12C19.5839 12.2589 19.5168 12.5135 19.3893 12.7388C19.2617 12.9642 19.078 13.1527 18.856 13.286L13.5 16.5L8.272 19.637C8.0444 19.7736 7.78461 19.8474 7.51917 19.8508C7.25373 19.8542 6.99214 19.7871 6.76112 19.6563C6.5301 19.5255 6.33792 19.3358 6.2042 19.1065C6.07048 18.8772 6.00001 18.6165 6 18.351V12Z" fill="var(--fill-0, white)"/>
</g>
</svg>
