<svg width="23" height="24" viewBox="0 0 23 24" fill="none" xmlns="http://www.w3.org/2000/svg">
<path fill-rule="evenodd" clip-rule="evenodd" d="M18.8982 12.3128C18.8982 11.7481 18.8475 11.2051 18.7534 10.6838H11.2529V13.7644H15.5389C15.3543 14.7598 14.7932 15.6033 13.9498 16.168V18.1662H16.5235C18.0294 16.7798 18.8982 14.7381 18.8982 12.3128Z" fill="#4285F4"/>
<path fill-rule="evenodd" clip-rule="evenodd" d="M11.2529 20.0956C13.4031 20.0956 15.2058 19.3824 16.5235 18.1662L13.9497 16.168C13.2366 16.6458 12.3244 16.9281 11.2529 16.9281C9.17869 16.9281 7.42304 15.5272 6.7968 13.6449H4.13617V15.7082C5.44657 18.311 8.13978 20.0956 11.2529 20.0956Z" fill="#34A853"/>
<path fill-rule="evenodd" clip-rule="evenodd" d="M6.79681 13.6449C6.63753 13.1671 6.54704 12.6567 6.54704 12.1318C6.54704 11.6069 6.63753 11.0965 6.79681 10.6187V8.55536H4.13618C3.59682 9.63047 3.28912 10.8468 3.28912 12.1318C3.28912 13.4169 3.59682 14.6332 4.13618 15.7083L6.79681 13.6449Z" fill="#FBBC05"/>
<path fill-rule="evenodd" clip-rule="evenodd" d="M11.2529 7.33544C12.4221 7.33544 13.4719 7.73725 14.2972 8.52639L16.5814 6.24223C15.2022 4.95717 13.3995 4.16803 11.2529 4.16803C8.13978 4.16803 5.44657 5.95264 4.13617 8.55535L6.7968 10.6187C7.42304 8.73635 9.17869 7.33544 11.2529 7.33544Z" fill="#EA4335"/>
</svg>
