<svg width="13" height="14" viewBox="0 0 13 14" fill="none" xmlns="http://www.w3.org/2000/svg">
<path fill-rule="evenodd" clip-rule="evenodd" d="M3.00707 0.870988C5.32129 0.61234 7.71334 0.61234 10.0276 0.870988C11.3965 1.02399 12.502 2.10229 12.663 3.47915C12.9398 5.84537 12.9398 8.23577 12.663 10.602C12.502 11.9788 11.3965 13.0571 10.0276 13.2101C7.71334 13.4688 5.32129 13.4688 3.00707 13.2101C1.63814 13.0571 0.532661 11.9788 0.371625 10.602C0.094875 8.23577 0.094875 5.84537 0.371625 3.47915C0.532661 2.10229 1.63814 1.02399 3.00707 0.870988ZM7.26686 4.04244C7.26686 4.4564 6.93129 4.79197 6.51733 4.79197C6.10338 4.79197 5.7678 4.4564 5.7678 4.04244C5.7678 3.62849 6.10338 3.29291 6.51733 3.29291C6.93129 3.29291 7.26686 3.62849 7.26686 4.04244ZM6.51733 6.10365C6.8278 6.10365 7.07948 6.35534 7.07948 6.6658V10.4135C7.07948 10.7239 6.8278 10.9756 6.51733 10.9756C6.20686 10.9756 5.95518 10.7239 5.95518 10.4135V6.6658C5.95518 6.35534 6.20686 6.10365 6.51733 6.10365Z" fill="#81868E"/>
</svg>
