<svg width="19" height="19" viewBox="0 0 19 19" fill="none" xmlns="http://www.w3.org/2000/svg">
<path d="M5.37853 8.2198C4.55062 8.2198 3.87947 8.89095 3.87947 9.71886C3.87947 10.5468 4.55062 11.2179 5.37853 11.2179C6.20644 11.2179 6.87759 10.5468 6.87759 9.71886C6.87759 8.89095 6.20644 8.2198 5.37853 8.2198Z" fill="#81868E"/>
<path fill-rule="evenodd" clip-rule="evenodd" d="M5.37853 5.40906C2.99829 5.40906 1.06873 7.33862 1.06873 9.71886C1.06873 12.0991 2.99829 14.0287 5.37853 14.0287C7.01294 14.0287 8.4338 13.119 9.16427 11.7801H11.5622V13.4665C11.5622 13.777 11.8138 14.0287 12.1243 14.0287H14.7477C15.0581 14.0287 15.3098 13.777 15.3098 13.4665V11.7801H16.6215C16.932 11.7801 17.1837 11.5284 17.1837 11.2179V8.96933C17.1837 8.24491 16.5964 7.65765 15.872 7.65765H9.16427C8.4338 6.31877 7.01294 5.40906 5.37853 5.40906ZM2.19302 9.71886C2.19302 7.95956 3.61922 6.53335 5.37853 6.53335C6.68392 6.53335 7.80715 7.31863 8.29923 8.44487C8.38868 8.64962 8.59091 8.78195 8.81435 8.78195H15.872C15.9755 8.78195 16.0594 8.86584 16.0594 8.96933V10.6558H14.7477C14.4372 10.6558 14.1855 10.9075 14.1855 11.2179V12.9044H12.6865V11.2179C12.6865 10.9075 12.4348 10.6558 12.1243 10.6558H8.81435C8.59091 10.6558 8.38868 10.7881 8.29923 10.9929C7.80715 12.1191 6.68392 12.9044 5.37853 12.9044C3.61922 12.9044 2.19302 11.4782 2.19302 9.71886Z" fill="#81868E"/>
</svg>
