<svg width="20" height="20" viewBox="0 0 20 20" fill="none" xmlns="http://www.w3.org/2000/svg">
<path d="M1.66699 9.99967L1.08134 9.53115L0.706524 9.99967L1.08134 10.4682L1.66699 9.99967ZM9.16699 10.7497C9.58121 10.7497 9.91699 10.4139 9.91699 9.99967C9.91699 9.58546 9.58121 9.24967 9.16699 9.24967V9.99967V10.7497ZM5.00033 5.83301L4.41467 5.36449L1.08134 9.53115L1.66699 9.99967L2.25264 10.4682L5.58598 6.30153L5.00033 5.83301ZM1.66699 9.99967L1.08134 10.4682L4.41467 14.6349L5.00033 14.1663L5.58598 13.6978L2.25264 9.53115L1.66699 9.99967ZM1.66699 9.99967V10.7497H9.16699V9.99967V9.24967H1.66699V9.99967Z" fill="white"/>
<path d="M8.33301 6.77694V6.6143C8.33301 5.10144 8.33301 4.34501 8.75067 3.80472C8.78716 3.75751 8.82575 3.71196 8.86632 3.6682C9.3306 3.16739 10.0767 3.04304 11.569 2.79432V2.79432C14.5984 2.28942 16.1132 2.03697 17.1427 2.81571C17.2309 2.88239 17.3153 2.9539 17.3956 3.02991C18.333 3.91746 18.333 5.45307 18.333 8.52429V11.4764C18.333 14.5476 18.333 16.0832 17.3956 16.9707C17.3153 17.0467 17.2309 17.1183 17.1427 17.1849C16.1132 17.9637 14.5979 17.7111 11.5675 17.2061V17.2061C10.0769 16.9576 9.33164 16.8334 8.86761 16.3338C8.82614 16.2892 8.78673 16.2427 8.74951 16.1944C8.33301 15.6546 8.33301 14.8993 8.33301 13.3886V13.3886" stroke="white" stroke-width="1.5"/>
</svg>
