<svg width="14" height="14" viewBox="0 0 14 14" fill="none" xmlns="http://www.w3.org/2000/svg">
<path d="M5.10395 7.45213L5.06895 7.52213C4.92311 7.80505 4.6927 8.03546 4.40978 8.1813L4.33978 8.2163C4.0627 8.3563 4.0627 8.75296 4.33978 8.89588L4.40978 8.93088C4.6927 9.07671 4.92311 9.30713 5.06895 9.59005L5.10395 9.66005C5.24395 9.93713 5.64061 9.93713 5.78353 9.66005L5.81853 9.59005C5.96437 9.30713 6.19478 9.07671 6.4777 8.93088L6.5477 8.89588C6.82478 8.75588 6.82478 8.35921 6.5477 8.2163L6.4777 8.1813C6.19478 8.03546 5.96437 7.80505 5.81853 7.52213L5.78353 7.45213C5.64353 7.17505 5.24687 7.17505 5.10395 7.45213Z" fill="url(#paint0_linear_194_3630)"/>
<path d="M6.24728 6.93588L6.34061 6.98255C6.63228 7.1313 6.86561 7.36463 7.01436 7.6563L7.06103 7.74963C7.22145 8.06463 7.54228 8.26005 7.8952 8.26005C8.24811 8.26005 8.56895 8.06463 8.73228 7.74963L8.77895 7.6563C8.9277 7.36463 9.16103 7.1313 9.4527 6.98255L9.54603 6.93588C9.86103 6.77546 10.0564 6.45463 10.0564 6.10171C10.0564 5.7488 9.86103 5.42796 9.54603 5.26463L9.4527 5.21796C9.16103 5.06921 8.9277 4.83588 8.77895 4.54421L8.73228 4.45088C8.57187 4.13588 8.25103 3.94046 7.8952 3.94046C7.53936 3.94046 7.22145 4.13588 7.05812 4.45088L7.01145 4.54421C6.8627 4.83588 6.62936 5.06921 6.3377 5.21796L6.24437 5.26463C5.92937 5.42505 5.73395 5.74588 5.73395 6.10171C5.73395 6.45755 5.92937 6.77546 6.24437 6.9388L6.24728 6.93588ZM6.64395 6.04338L6.73728 5.99671C7.1952 5.76338 7.55978 5.3988 7.79311 4.94088L7.83978 4.84755C7.83978 4.84755 7.85728 4.81255 7.8952 4.81255C7.93312 4.81255 7.9477 4.83588 7.95061 4.84755L7.99728 4.94088C8.23062 5.3988 8.5952 5.76338 9.05312 5.99671L9.14645 6.04338C9.14645 6.04338 9.18145 6.06088 9.18145 6.0988C9.18145 6.13671 9.1552 6.1513 9.14645 6.15421L9.05312 6.20088C8.5952 6.43421 8.23062 6.7988 7.99728 7.25671L7.95061 7.35005C7.95061 7.35005 7.93312 7.38505 7.8952 7.38505C7.85728 7.38505 7.8427 7.3588 7.83978 7.35005L7.79311 7.25671C7.55978 6.7988 7.1952 6.43421 6.73728 6.20088L6.64395 6.15421C6.64395 6.15421 6.60895 6.13671 6.60895 6.0988C6.60895 6.06088 6.6352 6.0463 6.64395 6.04338Z" fill="url(#paint1_linear_194_3630)"/>
<path d="M10.2519 9.90213L8.63895 10.08C8.30937 10.115 8.14312 10.4942 8.33853 10.7625L8.48145 10.955C8.00895 11.133 7.50436 11.2292 6.99978 11.2292C6.57686 11.2292 6.16562 11.165 5.78061 11.0484C5.7077 11.028 5.6377 10.9988 5.5677 10.9755C5.50353 10.9521 5.43937 10.9317 5.37812 10.9055C5.33437 10.888 5.29353 10.8675 5.2527 10.8471C5.1652 10.8063 5.07478 10.7655 4.9902 10.7188C4.98437 10.7159 4.97853 10.713 4.97561 10.71C3.66603 9.98963 2.77353 8.59838 2.77353 7.00005C2.77353 6.99421 2.77353 6.98838 2.77353 6.97963C2.77353 6.88046 2.77936 6.78421 2.7852 6.68505C2.78811 6.63255 2.79395 6.58296 2.79978 6.53046C2.80853 6.45755 2.81728 6.38463 2.82895 6.31171C2.8377 6.26505 2.84353 6.21838 2.85228 6.1688C2.8727 6.06671 2.89895 5.96463 2.9252 5.86255C3.02436 5.50963 3.16728 5.16838 3.35686 4.84755C3.47936 4.64046 3.40936 4.37213 3.20228 4.24963C2.9952 4.12713 2.72686 4.19713 2.60436 4.40421C2.4002 4.7513 2.23978 5.12171 2.1202 5.5038C2.11436 5.5213 2.10561 5.53588 2.09978 5.55338C2.09395 5.57671 2.08811 5.60005 2.08228 5.62338C2.04728 5.7488 2.0152 5.87421 1.99186 5.99963C1.9802 6.05505 1.97436 6.11046 1.9627 6.16588C1.94811 6.25338 1.93645 6.3438 1.92478 6.43421C1.91895 6.49546 1.9102 6.55671 1.90728 6.61796C1.89853 6.73463 1.8927 6.84838 1.8927 6.96505C1.88686 7.81963 2.09395 8.66838 2.51395 9.4413C2.98936 10.3134 3.6952 11.0105 4.54686 11.4742C4.5527 11.4771 4.56145 11.483 4.56728 11.4859C4.66936 11.5413 4.77728 11.5909 4.8852 11.6375C4.9377 11.6609 4.98728 11.6871 5.03978 11.7075C5.11562 11.7396 5.19145 11.763 5.26728 11.7921C5.35186 11.8242 5.43645 11.8563 5.52395 11.8825C5.53562 11.8855 5.54436 11.8913 5.55603 11.8942C5.56478 11.8942 5.57353 11.8942 5.58228 11.8971C6.03145 12.0284 6.50686 12.1013 6.99686 12.1013C7.69103 12.1013 8.37645 11.9555 9.0152 11.6813L9.29811 12.0692C9.49353 12.3346 9.90478 12.2909 10.0389 11.9875L10.6923 10.503C10.8264 10.1996 10.5814 9.86713 10.2519 9.90213Z" fill="url(#paint2_linear_194_3630)"/>
<path d="M6.99978 1.89588C6.30561 1.89588 5.6202 2.04171 4.98145 2.31588L4.69853 1.92796C4.50312 1.66255 4.09186 1.7063 3.9577 2.00963L3.30436 3.49421C3.1702 3.79755 3.4152 4.13005 3.74478 4.09505L5.3577 3.91713C5.68728 3.88213 5.85353 3.50296 5.65811 3.23463L5.5152 3.04213C5.9877 2.86421 6.49228 2.76796 6.99686 2.76796C9.3302 2.76796 11.226 4.6638 11.226 6.99713C11.226 7.74671 11.0219 8.49046 10.6369 9.14088C10.5144 9.34796 10.5844 9.6163 10.7914 9.7388C10.8614 9.77963 10.9373 9.80005 11.0131 9.80005C11.1619 9.80005 11.3077 9.72421 11.3894 9.58421C11.8531 8.79671 12.101 7.9013 12.101 6.99421C12.101 4.17963 9.81145 1.89005 6.99686 1.89005L6.99978 1.89588Z" fill="url(#paint3_linear_194_3630)"/>
<defs>
<linearGradient id="paint0_linear_194_3630" x1="6.99681" y1="1.75293" x2="6.99681" y2="12.2442" gradientUnits="userSpaceOnUse">
<stop stop-color="white"/>
<stop offset="1" stop-color="#B7FFFD"/>
</linearGradient>
<linearGradient id="paint1_linear_194_3630" x1="6.99681" y1="1.75293" x2="6.99681" y2="12.2442" gradientUnits="userSpaceOnUse">
<stop stop-color="white"/>
<stop offset="1" stop-color="#B7FFFD"/>
</linearGradient>
<linearGradient id="paint2_linear_194_3630" x1="6.99681" y1="1.75293" x2="6.99681" y2="12.2442" gradientUnits="userSpaceOnUse">
<stop stop-color="white"/>
<stop offset="1" stop-color="#B7FFFD"/>
</linearGradient>
<linearGradient id="paint3_linear_194_3630" x1="6.99681" y1="1.75293" x2="6.99681" y2="12.2442" gradientUnits="userSpaceOnUse">
<stop stop-color="white"/>
<stop offset="1" stop-color="#B7FFFD"/>
</linearGradient>
</defs>
</svg>
