<svg width="12" height="12" viewBox="0 0 12 12" fill="none" xmlns="http://www.w3.org/2000/svg">
<path d="M6 2.5L5.75251 2.25251L6 2.00503L6.24749 2.25251L6 2.5ZM6.35 7C6.35 7.1933 6.1933 7.35 6 7.35C5.8067 7.35 5.65 7.1933 5.65 7L6 7L6.35 7ZM3.5 5L3.25251 4.75251L5.75251 2.25251L6 2.5L6.24749 2.74749L3.74749 5.24749L3.5 5ZM6 2.5L6.24749 2.25251L8.74749 4.75251L8.5 5L8.25251 5.24749L5.75251 2.74749L6 2.5ZM6 2.5L6.35 2.5L6.35 7L6 7L5.65 7L5.65 2.5L6 2.5Z" fill="white"/>
<path d="M2.5 8L2.5 8.5C2.5 9.05228 2.94772 9.5 3.5 9.5L8.5 9.5C9.05228 9.5 9.5 9.05228 9.5 8.5V8" stroke="white" stroke-width="0.7"/>
</svg>
