<svg width="7" height="8" viewBox="0 0 7 8" fill="none" xmlns="http://www.w3.org/2000/svg">
<path d="M6.79993 1.74614C7.0196 1.52647 7.0196 1.17031 6.79993 0.950641C6.58026 0.730971 6.2241 0.730971 6.00443 0.950641L3.75053 3.20454L1.49663 0.950641C1.27696 0.730972 0.920806 0.730971 0.701136 0.950641C0.481466 1.17031 0.481467 1.52647 0.701136 1.74614L2.95504 4.00004L0.701129 6.25394C0.48146 6.47361 0.481459 6.82977 0.701129 7.04944C0.920799 7.26911 1.27695 7.26911 1.49662 7.04944L3.75053 4.79553L6.00444 7.04944C6.22411 7.26911 6.58026 7.26911 6.79993 7.04944C7.0196 6.82977 7.0196 6.47361 6.79993 6.25394L4.54603 4.00004L6.79993 1.74614Z" fill="white"/>
</svg>
