<svg width="19" height="19" viewBox="0 0 19 19" fill="none" xmlns="http://www.w3.org/2000/svg">
<path fill-rule="evenodd" clip-rule="evenodd" d="M2.23324 6.78948C2.02327 8.74043 2.03263 10.9905 2.32481 12.9335C2.48648 14.0087 3.36394 14.8329 4.44706 14.927L5.57903 15.0254C7.93934 15.2306 10.313 15.2306 12.6733 15.0254L13.8053 14.927C14.8884 14.8329 15.7659 14.0087 15.9275 12.9335C16.2197 10.9905 16.2291 8.74056 16.0191 6.7896C15.992 6.56342 15.9614 6.33754 15.9275 6.11205C15.7659 5.03693 14.8884 4.21271 13.8053 4.11855L12.6733 4.02015C10.313 3.81498 7.93934 3.81498 5.57903 4.02015L4.44706 4.11855C3.36394 4.21271 2.48648 5.03693 2.32481 6.11205C2.29091 6.33751 2.26038 6.56334 2.23324 6.78948ZM5.67639 5.14023C7.97192 4.94068 10.2804 4.94068 12.5759 5.14023L13.7079 5.23863C14.2733 5.28778 14.7313 5.71802 14.8157 6.27924C14.8245 6.33752 14.833 6.39583 14.8413 6.45416L10.6732 8.7698C9.71107 9.30429 8.54122 9.30429 7.57912 8.7698L3.41102 6.45419C3.41931 6.39584 3.42784 6.33753 3.43661 6.27924C3.521 5.71802 3.97903 5.28778 4.54443 5.23863L5.67639 5.14023ZM14.9789 7.66388C15.1243 9.36363 15.0699 11.0762 14.8157 12.7664C14.7313 13.3276 14.2733 13.7578 13.7079 13.807L12.5759 13.9054C10.2804 14.1049 7.97191 14.1049 5.67639 13.9054L4.54443 13.807C3.97903 13.7578 3.521 13.3276 3.43661 12.7664C3.18245 11.0762 3.12806 9.36365 3.27345 7.66391L7.03311 9.75261C8.33477 10.4758 9.91751 10.4758 11.2192 9.75261L14.9789 7.66388Z" fill="#81868E"/>
</svg>
