<svg width="16" height="16" viewBox="0 0 16 16" fill="none" xmlns="http://www.w3.org/2000/svg">
<path d="M7.99949 9.42969L8.26465 9.69484L7.99949 9.96L7.73433 9.69484L7.99949 9.42969ZM7.6245 3.00133C7.6245 2.79423 7.79239 2.62634 7.99949 2.62634C8.20659 2.62634 8.37448 2.79423 8.37448 3.00133L7.99949 3.00133L7.6245 3.00133ZM11.5708 5.85838L11.836 6.12353L8.26465 9.69484L7.99949 9.42969L7.73433 9.16453L11.3056 5.59322L11.5708 5.85838ZM7.99949 9.42969L7.73433 9.69484L4.16302 6.12353L4.42818 5.85838L4.69333 5.59322L8.26465 9.16453L7.99949 9.42969ZM7.99949 9.42969L7.6245 9.42969L7.6245 3.00133L7.99949 3.00133L8.37448 3.00133L8.37448 9.42969L7.99949 9.42969Z" fill="white"/>
<path d="M3.00049 10.8555L3.00049 11.5697C3.00049 12.3587 3.64006 12.9983 4.42901 12.9983L11.5716 12.9983C12.3606 12.9983 13.0002 12.3587 13.0002 11.5697V10.8555" stroke="white" stroke-width="0.749975"/>
</svg>
