<svg width="18" height="18" viewBox="0 0 18 18" fill="none" xmlns="http://www.w3.org/2000/svg">
<path d="M10.601 2.62564C10.601 2.48366 10.5163 2.35541 10.3856 2.2998C10.255 2.24418 10.1038 2.27195 10.0014 2.37036L8.74212 3.58124C6.86711 5.38413 5.28278 7.46666 4.04552 9.7547C4.01639 9.80615 3.99976 9.8656 3.99976 9.92894C3.99976 10.1245 4.15831 10.2831 4.3539 10.2831H7.40664V15.3749C7.40664 15.5152 7.4894 15.6422 7.61768 15.6989C7.74596 15.7555 7.8956 15.7312 7.99928 15.6367L8.56273 15.1234C10.5351 13.3267 12.209 11.2275 13.5215 8.90466L13.87 8.28784C13.932 8.1782 13.9311 8.0439 13.8676 7.93513C13.8041 7.82636 13.6876 7.75948 13.5617 7.75948H10.601V2.62564Z" fill="#00F2EA"/>
</svg>
