<svg preserveAspectRatio="none" width="100%" height="100%" overflow="visible" style="display: block;" viewBox="0 0 48.1726 48.1763" fill="none" xmlns="http://www.w3.org/2000/svg">
<g id="Group 469283">
<path id="Vector" d="M16.0612 24.0881C16.0612 19.6543 19.6543 16.0575 24.0899 16.0575C28.5256 16.0575 32.1205 19.6525 32.1205 24.0881C32.1205 28.5238 28.5256 32.1187 24.0899 32.1187C19.6543 32.1187 16.0612 28.5238 16.0612 24.0881ZM11.7197 24.0881C11.7197 30.9192 17.2571 36.4565 24.0881 36.4565C30.9192 36.4565 36.4565 30.9192 36.4565 24.0881C36.4565 17.2571 30.9192 11.7197 24.0881 11.7197C17.2571 11.7197 11.7197 17.2571 11.7197 24.0881ZM34.0575 11.2287C34.0575 12.825 35.3512 14.1206 36.9494 14.1206C38.5475 14.1206 39.8413 12.825 39.8413 11.2287C39.8413 9.63235 38.5475 8.33862 36.9494 8.33862C35.3512 8.33862 34.0575 9.63235 34.0575 11.2287ZM14.3561 43.6953C12.0078 43.5884 10.7304 43.197 9.8824 42.8672C8.75718 42.4287 7.95629 41.9087 7.11192 41.0661C6.26936 40.2236 5.74571 39.4227 5.31084 38.2975C4.97925 37.4495 4.58968 36.1721 4.48278 33.8238C4.36681 31.2852 4.34326 30.5224 4.34326 24.0899C4.34326 17.6575 4.36862 16.8965 4.48278 14.3561C4.58968 12.0078 4.98288 10.734 5.31084 9.8824C5.74933 8.75718 6.26936 7.95629 7.11192 7.11192C7.95448 6.26936 8.75537 5.74571 9.8824 5.31084C10.7304 4.97925 12.0078 4.58968 14.3561 4.48278C16.8947 4.36681 17.6575 4.34326 24.0881 4.34326C30.5188 4.34326 31.2816 4.36862 33.822 4.48278C36.1702 4.58968 37.4441 4.98288 38.2957 5.31084C39.4209 5.74752 40.2218 6.26936 41.0661 7.11192C41.9087 7.95448 42.4305 8.75718 42.8672 9.8824C43.1988 10.7304 43.5884 12.0078 43.6953 14.3561C43.8113 16.8965 43.8348 17.6575 43.8348 24.0899C43.8348 30.5224 43.8113 31.2834 43.6953 33.8238C43.5884 36.1721 43.1952 37.4495 42.8672 38.2975C42.4287 39.4227 41.9087 40.2236 41.0661 41.0661C40.2236 41.9087 39.4209 42.4305 38.2957 42.8672C37.4477 43.1988 36.1702 43.5884 33.822 43.6953C31.2834 43.8113 30.5206 43.8348 24.0881 43.8348C17.6557 43.8348 16.8947 43.8113 14.3561 43.6953ZM14.1568 0.146768C11.5929 0.262733 9.84073 0.670423 8.30963 1.26474C6.72598 1.879 5.38332 2.70525 4.04247 4.04247C2.70344 5.38151 1.879 6.72417 1.26474 8.30963C0.668611 9.84254 0.262733 11.5929 0.146768 14.1568C0.0271793 16.7243 0 17.547 0 24.0881C0 30.6293 0.0271793 31.4501 0.146768 34.0195C0.262733 36.5834 0.670423 38.3355 1.26474 39.8666C1.879 41.4503 2.70344 42.7948 4.04247 44.1338C5.38151 45.4728 6.72417 46.2954 8.30963 46.9115C9.84254 47.5076 11.5929 47.9135 14.1568 48.0295C16.728 48.1455 17.547 48.1763 24.0881 48.1763C30.6293 48.1763 31.4501 48.1491 34.0195 48.0295C36.5834 47.9135 38.3355 47.5058 39.8666 46.9115C41.4503 46.2954 42.7929 45.471 44.1338 44.1338C45.4728 42.7948 46.2954 41.4503 46.9115 39.8666C47.5076 38.3355 47.9153 36.5834 48.0295 34.0195C48.1455 31.4483 48.1726 30.6293 48.1726 24.0881C48.1726 17.547 48.1455 16.7262 48.0295 14.1568C47.9135 11.5929 47.5058 9.84073 46.9115 8.30963C46.2954 6.72598 45.471 5.38332 44.1338 4.04247C42.7948 2.70344 41.4503 1.879 39.8684 1.26474C38.3355 0.668611 36.5834 0.260922 34.0213 0.146768C31.4537 0.0308032 30.6311 0 24.0899 0C17.5488 0 16.728 0.0271793 14.1568 0.146768Z" fill="var(--fill-0, white)"/>
</g>
</svg>
