<svg width="16" height="16" viewBox="0 0 16 16" fill="none" xmlns="http://www.w3.org/2000/svg">
<path d="M6.23447 3.88652L6.31447 3.92652C6.6378 4.09319 6.90113 4.35652 7.0678 4.67986L7.1078 4.75986C7.2678 5.07652 7.72114 5.07652 7.88447 4.75986L7.92447 4.67986C8.09114 4.35652 8.35447 4.09319 8.6778 3.92652L8.7578 3.88652C9.07447 3.72652 9.07447 3.27319 8.7578 3.10986L8.6778 3.06986C8.35447 2.90319 8.09114 2.63986 7.92447 2.31652L7.88447 2.23652C7.72447 1.91986 7.27113 1.91986 7.1078 2.23652L7.0678 2.31652C6.90113 2.63986 6.6378 2.90319 6.31447 3.06986L6.23447 3.10986C5.9178 3.26986 5.9178 3.72319 6.23447 3.88652Z" fill="#00F2EA"/>
<path d="M6.86447 7.00986C7.19113 6.84319 7.19113 6.37986 6.86447 6.21319L6.3778 5.96319C5.94447 5.73986 5.59113 5.38652 5.3678 4.95319L5.1178 4.46652C4.95113 4.13986 4.4878 4.13986 4.32113 4.46652L4.07113 4.95319C3.8478 5.38652 3.49447 5.73986 3.06113 5.96319L2.57447 6.21319C2.2478 6.37986 2.2478 6.84319 2.57447 7.00986L3.06113 7.25986C3.49447 7.48319 3.8478 7.83652 4.07113 8.26986L4.32113 8.75652C4.4878 9.08319 4.95113 9.08319 5.1178 8.75652L5.3678 8.26986C5.59113 7.83652 5.94447 7.48319 6.3778 7.25986L6.86447 7.00986Z" fill="#00F2EA"/>
<path d="M13.1178 9.00319L12.6245 8.74986C12.0278 8.44652 11.5511 7.96986 11.2478 7.37319L10.9945 6.87986C10.7711 6.43986 10.3245 6.16652 9.83113 6.16652C9.3378 6.16652 8.89113 6.43986 8.6678 6.87986L8.41447 7.37319C8.11114 7.96986 7.63447 8.44652 7.0378 8.74986L6.54447 9.00319C6.10447 9.22652 5.83113 9.67319 5.83113 10.1665C5.83113 10.6599 6.10447 11.1065 6.54447 11.3299L7.0378 11.5832C7.63447 11.8865 8.11114 12.3632 8.41447 12.9599L8.6678 13.4532C8.89113 13.8932 9.3378 14.1665 9.83113 14.1665C10.3245 14.1665 10.7711 13.8932 10.9945 13.4532L11.2478 12.9599C11.5511 12.3632 12.0278 11.8865 12.6245 11.5832L13.1178 11.3299C13.5578 11.1065 13.8311 10.6599 13.8311 10.1665C13.8311 9.67319 13.5578 9.22652 13.1178 9.00319ZM12.6645 10.4399L12.1711 10.6932C11.3845 11.0932 10.7578 11.7199 10.3578 12.5065L10.1045 12.9999C10.0278 13.1499 9.8878 13.1665 9.83113 13.1665C9.77447 13.1665 9.63447 13.1499 9.5578 12.9999L9.30447 12.5065C8.90447 11.7199 8.2778 11.0932 7.49113 10.6932L6.9978 10.4399C6.8478 10.3632 6.83113 10.2232 6.83113 10.1665C6.83113 10.1099 6.8478 9.96986 6.9978 9.89319L7.49113 9.63986C8.2778 9.23986 8.90447 8.61319 9.30447 7.82652L9.5578 7.33319C9.63447 7.18319 9.77447 7.16652 9.83113 7.16652C9.8878 7.16652 10.0278 7.18319 10.1045 7.33319L10.3578 7.82652C10.7578 8.61319 11.3845 9.23986 12.1711 9.63986L12.6645 9.89319C12.8145 9.96986 12.8311 10.1099 12.8311 10.1665C12.8311 10.2232 12.8145 10.3632 12.6645 10.4399Z" fill="#00F2EA"/>
</svg>
