<svg width="16" height="16" viewBox="0 0 16 16" fill="none" xmlns="http://www.w3.org/2000/svg">
<path d="M8.00016 9.33398L8.51496 9.84879L8.00016 10.3636L7.48536 9.84879L8.00016 9.33398ZM7.27212 3.33398C7.27212 2.9319 7.59808 2.60595 8.00016 2.60595C8.40225 2.60595 8.7282 2.9319 8.7282 3.33398L8.00016 3.33398L7.27212 3.33398ZM11.3335 6.00065L11.8483 6.51545L8.51496 9.84879L8.00016 9.33398L7.48536 8.81918L10.8187 5.48585L11.3335 6.00065ZM8.00016 9.33398L7.48536 9.84879L4.15203 6.51545L4.66683 6.00065L5.18163 5.48585L8.51496 8.81918L8.00016 9.33398ZM8.00016 9.33398L7.27212 9.33398L7.27212 3.33398L8.00016 3.33398L8.7282 3.33398L8.7282 9.33398L8.00016 9.33398Z" fill="url(#paint0_linear_1577_25251)"/>
<path d="M3.33325 10.666L3.33325 11.3327C3.33325 12.0691 3.93021 12.666 4.66659 12.666L11.3333 12.666C12.0696 12.666 12.6666 12.0691 12.6666 11.3327V10.666" stroke="url(#paint1_linear_1577_25251)" stroke-width="1.45608"/>
<defs>
<linearGradient id="paint0_linear_1577_25251" x1="11.3335" y1="6.33398" x2="4.66683" y2="6.33398" gradientUnits="userSpaceOnUse">
<stop stop-color="white"/>
<stop offset="1" stop-color="#B7FFFD"/>
</linearGradient>
<linearGradient id="paint1_linear_1577_25251" x1="7.99992" y1="10.666" x2="7.99992" y2="12.666" gradientUnits="userSpaceOnUse">
<stop stop-color="white"/>
<stop offset="1" stop-color="#B7FFFD"/>
</linearGradient>
</defs>
</svg>
