<svg width="16" height="16" viewBox="0 0 16 16" fill="none" xmlns="http://www.w3.org/2000/svg">
<path d="M7.99983 9.33334L8.24731 9.58083L7.99983 9.82832L7.75234 9.58083L7.99983 9.33334ZM7.64983 3.33334C7.64983 3.14004 7.80653 2.98334 7.99983 2.98334C8.19313 2.98334 8.34983 3.14004 8.34983 3.33334L7.99983 3.33334L7.64983 3.33334ZM11.3332 6.00001L11.5806 6.2475L8.24731 9.58083L7.99983 9.33334L7.75234 9.08586L11.0857 5.75252L11.3332 6.00001ZM7.99983 9.33334L7.75234 9.58083L4.41901 6.2475L4.66649 6.00001L4.91398 5.75252L8.24731 9.08586L7.99983 9.33334ZM7.99983 9.33334L7.64983 9.33334L7.64983 3.33334L7.99983 3.33334L8.34983 3.33334L8.34983 9.33334L7.99983 9.33334Z" fill="#00F2EA"/>
<path d="M3.33334 10.6667L3.33334 11.3333C3.33334 12.0697 3.9303 12.6667 4.66668 12.6667L11.3333 12.6667C12.0697 12.6667 12.6667 12.0697 12.6667 11.3333V10.6667" stroke="#00F2EA" stroke-width="0.7"/>
</svg>
