<svg width="17" height="18" viewBox="0 0 17 18" fill="none" xmlns="http://www.w3.org/2000/svg">
<g clip-path="url(#clip0_1132_4033)">
<g clip-path="url(#clip1_1132_4033)">
<path fill-rule="evenodd" clip-rule="evenodd" d="M0 15.4211V1.87891H17V15.4211C17 16.0591 16.4782 16.5816 15.8411 16.5816H1.1589C0.521773 16.5816 0 16.0591 0 15.4211ZM6.56838 4.97489H10.4316C10.8587 4.97489 11.2047 4.62835 11.2047 4.20071C11.2047 3.77384 10.8587 3.42728 10.4316 3.42728H6.56838C6.14133 3.42728 5.79527 3.77384 5.79527 4.20071C5.79527 4.62835 6.14133 4.97489 6.56838 4.97489Z" fill="white"/>
<path d="M8.50017 8.06641C5.90891 8.06641 3.6316 9.41051 2.32526 11.4408V16.5779H5.90432L8.50017 12.0751H15.0403C13.8249 9.69586 11.352 8.06641 8.50017 8.06641Z" fill="#DB4437"/>
<path d="M2.32324 11.4473C1.5868 12.5932 1.159 13.9573 1.159 15.4215C1.159 15.8163 1.19031 16.2041 1.25067 16.582H5.31331L2.32324 11.4473Z" fill="#0F9D58"/>
<path d="M15.8411 15.4204C15.8411 14.2171 15.5524 13.081 15.0405 12.0781H8.50043L11.0963 16.5809H15.7495C15.8098 16.203 15.8411 15.8151 15.8411 15.4204Z" fill="#FFCD40"/>
<path d="M8.50043 12.0781C6.65701 12.0781 5.16351 13.5745 5.16351 15.4204C5.16351 15.8289 5.23685 16.2198 5.37054 16.5809H6.09476C5.92516 16.2298 5.83043 15.8358 5.83043 15.4204C5.83043 13.9432 7.026 12.7467 8.50043 12.7467C9.97484 12.7467 11.1704 13.9432 11.1704 15.4204C11.1704 15.8366 11.0757 16.2298 10.906 16.5809H11.6303C11.764 16.2191 11.8373 15.8282 11.8373 15.4204C11.8373 13.5745 10.3431 12.0781 8.50043 12.0781Z" fill="#F1F1F1"/>
<path d="M8.5004 12.748C7.02601 12.748 5.83044 13.9445 5.83044 15.4217C5.83044 15.8379 5.92517 16.2311 6.09476 16.5823H10.9061C11.0756 16.2311 11.1704 15.8371 11.1704 15.4217C11.1697 13.9445 9.97481 12.748 8.5004 12.748Z" fill="#4285F4"/>
<path opacity="0.05" fill-rule="evenodd" clip-rule="evenodd" d="M0 9.23066V1.87891H17V9.23066H0ZM6.56838 4.97489H10.4316C10.8587 4.97489 11.2047 4.62835 11.2055 4.20071C11.2055 3.77384 10.8594 3.42728 10.4324 3.42728H6.56838C6.14133 3.42728 5.79527 3.77384 5.79527 4.20071C5.79527 4.62835 6.14133 4.97489 6.56838 4.97489Z" fill="#212121"/>
<path opacity="0.02" d="M17 9.13281H0V9.22997H17V9.13281Z" fill="#212121"/>
<path opacity="0.05" d="M17 9.22852H0V9.32567H17V9.22852Z" fill="white"/>
<path opacity="0.02" fill-rule="evenodd" clip-rule="evenodd" d="M0 1.97606V1.87891H17V1.97606H0ZM6.56838 4.97489H10.4316C10.8426 4.97489 11.1772 4.65283 11.2016 4.24967C11.2039 4.26573 11.2047 4.2818 11.2047 4.29786C11.2047 4.72551 10.8587 5.07128 10.4316 5.07128H6.56838C6.14133 5.07128 5.79527 4.72551 5.79527 4.29786C5.79527 4.2818 5.79603 4.26573 5.79832 4.24967C5.82276 4.65359 6.15813 4.97489 6.56838 4.97489Z" fill="#212121"/>
<path opacity="0.1" fill-rule="evenodd" clip-rule="evenodd" d="M10.4316 3.42529H6.56838C6.15737 3.42529 5.82276 3.74659 5.79832 4.15052C5.79603 4.13445 5.79527 4.11839 5.79527 4.10232C5.79527 3.67468 6.14133 3.32812 6.56838 3.32812H10.4316C10.8587 3.32812 11.2047 3.67468 11.2047 4.10232C11.2047 4.11195 11.2039 4.12159 11.2031 4.13123C11.2026 4.13766 11.202 4.14408 11.2016 4.15052C11.1772 3.74659 10.8418 3.42529 10.4316 3.42529ZM1.1589 16.4832H15.8411C16.4782 16.4832 17 15.9615 17 15.3227V15.4199C17 16.0579 16.4782 16.5804 15.8411 16.5804H1.1589C0.521773 16.5804 0 16.0579 0 15.4199V15.3227C0 15.9615 0.521773 16.4832 1.1589 16.4832Z" fill="#231F20"/>
</g>
</g>
<defs>
<clipPath id="clip0_1132_4033">
<rect width="17" height="17" fill="white" transform="translate(0 0.5)"/>
</clipPath>
<clipPath id="clip1_1132_4033">
<rect width="17" height="17" fill="white" transform="translate(0 0.5)"/>
</clipPath>
</defs>
</svg>
