<svg width="14" height="14" viewBox="0 0 14 14" fill="none" xmlns="http://www.w3.org/2000/svg">
<path d="M5.40442 7.82833L5.35484 7.80208C5.15359 7.7 4.98734 7.53375 4.88525 7.3325L4.859 7.28292C4.75692 7.08458 4.47692 7.08458 4.37484 7.28292L4.34859 7.3325C4.2465 7.53375 4.08025 7.7 3.879 7.80208L3.82942 7.82833C3.63109 7.93042 3.63109 8.21042 3.82942 8.3125L3.879 8.33875C4.08025 8.44083 4.2465 8.60708 4.34859 8.80833L4.37484 8.85792C4.47692 9.05625 4.75692 9.05625 4.859 8.85792L4.88525 8.80833C4.98734 8.60708 5.15359 8.44083 5.35484 8.33875L5.40442 8.3125C5.60275 8.21042 5.60275 7.93042 5.40442 7.82833Z" fill="url(#paint0_linear_194_3633)"/>
<path d="M6.644 6.51292L6.69067 6.41958C6.83942 6.12792 7.07275 5.89458 7.36442 5.74583L7.45775 5.69917C7.77275 5.53875 7.96817 5.21792 7.96817 4.865C7.96817 4.51208 7.77275 4.19125 7.45775 4.02792L7.36442 3.98125C7.07275 3.8325 6.83942 3.59917 6.69067 3.3075L6.644 3.21417C6.48359 2.89917 6.16275 2.70375 5.80984 2.70375C5.45692 2.70375 5.13609 2.89917 4.97275 3.21417L4.92609 3.3075C4.77734 3.59917 4.544 3.8325 4.25234 3.98125L4.159 4.02792C3.844 4.18833 3.64859 4.50917 3.64859 4.865C3.64859 5.22083 3.844 5.53875 4.159 5.70208L4.25234 5.74875C4.544 5.8975 4.77734 6.13083 4.92609 6.4225L4.97275 6.51583C5.13317 6.83083 5.454 7.02625 5.80984 7.02625C6.16567 7.02625 6.48359 6.83083 6.64692 6.51583L6.644 6.51292ZM5.91192 6.02292L5.86525 6.11625C5.86525 6.11625 5.84775 6.15125 5.80984 6.15125C5.77192 6.15125 5.75734 6.125 5.75442 6.11625L5.70775 6.02292C5.47442 5.565 5.10984 5.20042 4.65192 4.96708L4.55859 4.92042C4.55859 4.92042 4.52359 4.90292 4.52359 4.865C4.52359 4.82708 4.54984 4.8125 4.55859 4.80958L4.65192 4.76292C5.10984 4.52958 5.47442 4.165 5.70775 3.70708L5.75442 3.61375C5.75442 3.61375 5.77192 3.57875 5.80984 3.57875C5.84775 3.57875 5.86234 3.60208 5.86525 3.61375L5.91192 3.70708C6.14525 4.165 6.50984 4.52958 6.96775 4.76292L7.06109 4.80958C7.06109 4.80958 7.09609 4.82708 7.09609 4.865C7.09609 4.90292 7.06984 4.9175 7.06109 4.92042L6.96775 4.96708C6.50984 5.20042 6.14525 5.565 5.91192 6.02292Z" fill="url(#paint1_linear_194_3633)"/>
<path d="M5.40442 9.96625L5.35484 9.94C5.15359 9.83792 4.98734 9.67167 4.88525 9.47042L4.859 9.42083C4.75692 9.2225 4.47692 9.2225 4.37484 9.42083L4.34859 9.47042C4.2465 9.67167 4.08025 9.83792 3.879 9.94L3.82942 9.96625C3.63109 10.0683 3.63109 10.3483 3.82942 10.4504L3.879 10.4767C4.08025 10.5787 4.2465 10.745 4.34859 10.9462L4.37484 10.9958C4.47692 11.1942 4.75692 11.1942 4.859 10.9958L4.88525 10.9462C4.98734 10.745 5.15359 10.5787 5.35484 10.4767L5.40442 10.4504C5.60275 10.3483 5.60275 10.0683 5.40442 9.96625Z" fill="url(#paint2_linear_194_3633)"/>
<path d="M9.62484 7.63292H6.4165C6.17442 7.63292 5.979 7.82833 5.979 8.07042C5.979 8.3125 6.17442 8.50792 6.4165 8.50792H9.62484C9.86692 8.50792 10.0623 8.3125 10.0623 8.07042C10.0623 7.82833 9.86692 7.63292 9.62484 7.63292Z" fill="url(#paint3_linear_194_3633)"/>
<path d="M9.62484 9.77083H6.4165C6.17442 9.77083 5.979 9.96625 5.979 10.2083C5.979 10.4504 6.17442 10.6458 6.4165 10.6458H9.62484C9.86692 10.6458 10.0623 10.4504 10.0623 10.2083C10.0623 9.96625 9.86692 9.77083 9.62484 9.77083Z" fill="url(#paint4_linear_194_3633)"/>
<path d="M9.62484 5.49208H8.74984C8.50775 5.49208 8.31234 5.6875 8.31234 5.92958C8.31234 6.17167 8.50775 6.36708 8.74984 6.36708H9.62484C9.86692 6.36708 10.0623 6.17167 10.0623 5.92958C10.0623 5.6875 9.86692 5.49208 9.62484 5.49208Z" fill="url(#paint5_linear_194_3633)"/>
<path d="M9.62484 3.35417H8.74984C8.50775 3.35417 8.31234 3.54958 8.31234 3.79167C8.31234 4.03375 8.50775 4.22917 8.74984 4.22917H9.62484C9.86692 4.22917 10.0623 4.03375 10.0623 3.79167C10.0623 3.54958 9.86692 3.35417 9.62484 3.35417Z" fill="url(#paint6_linear_194_3633)"/>
<path d="M9.0415 1.3125H4.95817C3.109 1.3125 1.604 2.8175 1.604 4.66667V9.33333C1.604 11.1825 3.109 12.6875 4.95817 12.6875H9.0415C10.8907 12.6875 12.3957 11.1825 12.3957 9.33333V4.66667C12.3957 2.8175 10.8907 1.3125 9.0415 1.3125ZM11.5207 9.33333C11.5207 10.7013 10.4094 11.8125 9.0415 11.8125H4.95817C3.59025 11.8125 2.479 10.7013 2.479 9.33333V4.66667C2.479 3.29875 3.59025 2.1875 4.95817 2.1875H9.0415C10.4094 2.1875 11.5207 3.29875 11.5207 4.66667V9.33333Z" fill="url(#paint7_linear_194_3633)"/>
<defs>
<linearGradient id="paint0_linear_194_3633" x1="6.99984" y1="1.3125" x2="6.99984" y2="12.6875" gradientUnits="userSpaceOnUse">
<stop stop-color="white"/>
<stop offset="1" stop-color="#B7FFFD"/>
</linearGradient>
<linearGradient id="paint1_linear_194_3633" x1="6.99984" y1="1.3125" x2="6.99984" y2="12.6875" gradientUnits="userSpaceOnUse">
<stop stop-color="white"/>
<stop offset="1" stop-color="#B7FFFD"/>
</linearGradient>
<linearGradient id="paint2_linear_194_3633" x1="6.99984" y1="1.3125" x2="6.99984" y2="12.6875" gradientUnits="userSpaceOnUse">
<stop stop-color="white"/>
<stop offset="1" stop-color="#B7FFFD"/>
</linearGradient>
<linearGradient id="paint3_linear_194_3633" x1="6.99984" y1="1.3125" x2="6.99984" y2="12.6875" gradientUnits="userSpaceOnUse">
<stop stop-color="white"/>
<stop offset="1" stop-color="#B7FFFD"/>
</linearGradient>
<linearGradient id="paint4_linear_194_3633" x1="6.99984" y1="1.3125" x2="6.99984" y2="12.6875" gradientUnits="userSpaceOnUse">
<stop stop-color="white"/>
<stop offset="1" stop-color="#B7FFFD"/>
</linearGradient>
<linearGradient id="paint5_linear_194_3633" x1="6.99984" y1="1.3125" x2="6.99984" y2="12.6875" gradientUnits="userSpaceOnUse">
<stop stop-color="white"/>
<stop offset="1" stop-color="#B7FFFD"/>
</linearGradient>
<linearGradient id="paint6_linear_194_3633" x1="6.99984" y1="1.3125" x2="6.99984" y2="12.6875" gradientUnits="userSpaceOnUse">
<stop stop-color="white"/>
<stop offset="1" stop-color="#B7FFFD"/>
</linearGradient>
<linearGradient id="paint7_linear_194_3633" x1="6.99984" y1="1.3125" x2="6.99984" y2="12.6875" gradientUnits="userSpaceOnUse">
<stop stop-color="white"/>
<stop offset="1" stop-color="#B7FFFD"/>
</linearGradient>
</defs>
</svg>
