<svg width="14" height="14" viewBox="0 0 14 14" fill="none" xmlns="http://www.w3.org/2000/svg">
<path d="M2.37416 6.81333L2.3975 6.86C2.49083 7.04375 2.75625 7.04375 2.84958 6.86L2.87291 6.81333C2.96916 6.62375 3.12375 6.47208 3.31333 6.37292L3.36 6.34958C3.54375 6.25625 3.54375 5.99083 3.36 5.8975L3.31333 5.87417C3.12375 5.77792 2.97208 5.62333 2.87291 5.43375L2.84958 5.38708C2.75625 5.20333 2.49083 5.20333 2.3975 5.38708L2.37416 5.43375C2.27791 5.62333 2.12333 5.775 1.93375 5.87417L1.88708 5.8975C1.70333 5.99083 1.70333 6.25625 1.88708 6.34958L1.93375 6.37292C2.12333 6.46917 2.275 6.62375 2.37416 6.81333Z" fill="url(#paint0_linear_91_9020)"/>
<path d="M2.87875 3.76833L2.96625 3.81208C3.31333 3.99 3.59333 4.27 3.77125 4.61708L3.815 4.70458C3.98708 5.04292 4.47125 5.04292 4.64333 4.70458L4.68708 4.61708C4.865 4.27 5.145 3.99 5.49208 3.81208L5.57958 3.76833C5.91791 3.59625 5.91791 3.11208 5.57958 2.94L5.49208 2.89625C5.145 2.71833 4.865 2.43833 4.68708 2.09125L4.64333 2.00375C4.47125 1.66542 3.98708 1.66542 3.815 2.00375L3.77125 2.09125C3.59333 2.43833 3.31333 2.71833 2.96625 2.89625L2.87875 2.94C2.54041 3.11208 2.54041 3.59625 2.87875 3.76833Z" fill="url(#paint1_linear_91_9020)"/>
<path d="M11.1212 10.2317L11.0337 10.1879C10.6867 10.01 10.4067 9.73 10.2287 9.38292L10.185 9.29542C10.0129 8.95708 9.52875 8.95708 9.35666 9.29542L9.31291 9.38292C9.135 9.73 8.855 10.01 8.50791 10.1879L8.42041 10.2317C8.08208 10.4037 8.08208 10.8879 8.42041 11.06L8.50791 11.1037C8.855 11.2817 9.135 11.5617 9.31291 11.9088L9.35666 11.9963C9.52875 12.3346 10.0129 12.3346 10.185 11.9963L10.2287 11.9088C10.4067 11.5617 10.6867 11.2817 11.0337 11.1037L11.1212 11.06C11.4596 10.8879 11.4596 10.4037 11.1212 10.2317Z" fill="url(#paint2_linear_91_9020)"/>
<path d="M11.6404 5.09833L11.3137 4.68708L11.5004 4.17667C11.6783 3.6925 11.5617 3.16458 11.1971 2.8C10.8325 2.43542 10.3046 2.31875 9.82041 2.49667L9.31 2.68333L8.89875 2.35667C8.49041 2.03292 7.94791 1.9775 7.48416 2.21667C7.02041 2.45583 6.74916 2.92542 6.7725 3.4475L6.79583 3.94917L6.36708 4.23208C5.93541 4.51792 5.71666 5.01375 5.79541 5.52417C5.82166 5.69917 5.88291 5.85958 5.97041 6.0025L2.26916 9.82917C1.76458 10.3512 1.77041 11.1942 2.28375 11.7075C2.54333 11.9671 2.8875 12.0983 3.23166 12.0983C3.57583 12.0983 3.90541 11.9729 4.16208 11.725L7.98875 8.02375C8.13166 8.11125 8.29208 8.1725 8.46708 8.19875C8.53708 8.21042 8.60416 8.21333 8.67125 8.21333C9.10583 8.21333 9.51125 7.9975 9.75916 7.62417L10.0421 7.19542L10.5437 7.21875C11.0658 7.24792 11.5354 6.97083 11.7746 6.50708C12.0137 6.04333 11.9583 5.50083 11.6346 5.0925L11.6404 5.09833ZM6.08125 7.15167L6.65291 6.55958C6.67916 6.56833 6.70541 6.58 6.73166 6.58875L7.25958 6.74042L7.41125 7.26833C7.42 7.29458 7.43166 7.32083 7.44041 7.34708L6.53916 8.21917L6.08125 7.15458V7.15167ZM5.86541 8.86667L5.06625 9.63958L4.64041 8.64208L5.425 7.83125L5.86833 8.86667H5.86541ZM3.55833 11.0979C3.3775 11.2729 3.08291 11.27 2.905 11.0921C2.72708 10.9142 2.72416 10.6225 2.89916 10.4388L3.97541 9.32458L4.38958 10.29L3.55541 11.095L3.55833 11.0979ZM11.0017 6.11333C10.9725 6.17167 10.85 6.36125 10.5933 6.34958L10.0683 6.32333C9.77666 6.30875 9.49375 6.45167 9.33041 6.69667L9.03291 7.14583C8.89 7.36167 8.66833 7.34708 8.60416 7.33542C8.54 7.32667 8.32416 7.27417 8.25125 7.02625L8.09375 6.47792C8.015 6.19792 7.79916 5.985 7.52208 5.90625L6.97375 5.74875C6.72583 5.67875 6.67333 5.46292 6.66458 5.39583C6.65583 5.32875 6.63833 5.11 6.85416 4.96708L7.30333 4.66958C7.54833 4.50917 7.69125 4.22625 7.67666 3.93167L7.65041 3.40667C7.63875 3.14708 7.82833 3.0275 7.88666 2.99833C7.91875 2.98083 7.99458 2.94875 8.09083 2.94875C8.16958 2.94875 8.26291 2.97208 8.35625 3.045L8.785 3.38625C9.00958 3.56417 9.31875 3.61667 9.59 3.5175L10.1208 3.32208C10.3629 3.23458 10.5321 3.3775 10.5787 3.42417C10.6254 3.47083 10.7683 3.64 10.6808 3.88208L10.4854 4.41292C10.3862 4.68417 10.4358 4.99333 10.6167 5.21792L10.9579 5.64667C11.1212 5.85083 11.0337 6.05792 11.0046 6.11625L11.0017 6.11333Z" fill="url(#paint3_linear_91_9020)"/>
<defs>
<linearGradient id="paint0_linear_91_9020" x1="6.83564" y1="1.75" x2="6.83564" y2="12.25" gradientUnits="userSpaceOnUse">
<stop offset="0.15" stop-color="white"/>
<stop offset="1" stop-color="white" stop-opacity="0.64"/>
</linearGradient>
<linearGradient id="paint1_linear_91_9020" x1="6.83564" y1="1.75" x2="6.83564" y2="12.25" gradientUnits="userSpaceOnUse">
<stop offset="0.15" stop-color="white"/>
<stop offset="1" stop-color="white" stop-opacity="0.64"/>
</linearGradient>
<linearGradient id="paint2_linear_91_9020" x1="6.83564" y1="1.75" x2="6.83564" y2="12.25" gradientUnits="userSpaceOnUse">
<stop offset="0.15" stop-color="white"/>
<stop offset="1" stop-color="white" stop-opacity="0.64"/>
</linearGradient>
<linearGradient id="paint3_linear_91_9020" x1="6.83564" y1="1.75" x2="6.83564" y2="12.25" gradientUnits="userSpaceOnUse">
<stop offset="0.15" stop-color="white"/>
<stop offset="1" stop-color="white" stop-opacity="0.64"/>
</linearGradient>
</defs>
</svg>
