<svg width="19" height="19" viewBox="0 0 19 19" fill="none" xmlns="http://www.w3.org/2000/svg">
<path fill-rule="evenodd" clip-rule="evenodd" d="M5.94068 6.18368C5.94068 4.42437 7.36688 2.99817 9.12619 2.99817C10.8855 2.99817 12.3117 4.42437 12.3117 6.18368C12.3117 7.94299 10.8855 9.36919 9.12619 9.36919C7.36688 9.36919 5.94068 7.94299 5.94068 6.18368ZM9.12619 4.12247C7.98782 4.12247 7.06498 5.0453 7.06498 6.18368C7.06498 7.32205 7.98782 8.24489 9.12619 8.24489C10.2646 8.24489 11.1874 7.32205 11.1874 6.18368C11.1874 5.0453 10.2646 4.12247 9.12619 4.12247Z" fill="#81868E"/>
<path fill-rule="evenodd" clip-rule="evenodd" d="M6.12806 11.6178C5.19667 11.6178 4.44162 12.3728 4.44162 13.3042V14.1949C4.44162 14.2084 4.45145 14.22 4.46483 14.2222C7.55197 14.7262 10.7004 14.7262 13.7875 14.2222C13.8009 14.22 13.8108 14.2084 13.8108 14.1949V13.3042C13.8108 12.3728 13.0557 11.6178 12.1243 11.6178H11.8688C11.8491 11.6178 11.8294 11.6209 11.8107 11.627L11.1619 11.8389C9.83914 12.2708 8.41324 12.2708 7.09045 11.8389L6.44172 11.627C6.42294 11.6209 6.40331 11.6178 6.38356 11.6178H6.12806ZM3.31732 13.3042C3.31732 11.7519 4.57573 10.4935 6.12806 10.4935H6.38356C6.52184 10.4935 6.65925 10.5154 6.7907 10.5583L7.43944 10.7701C8.53546 11.128 9.71692 11.128 10.8129 10.7701L11.4617 10.5583C11.5931 10.5154 11.7305 10.4935 11.8688 10.4935H12.1243C13.6766 10.4935 14.9351 11.7519 14.9351 13.3042V14.1949C14.9351 14.7595 14.5259 15.2408 13.9687 15.3318C10.7616 15.8554 7.49079 15.8554 4.28367 15.3318C3.72648 15.2408 3.31732 14.7595 3.31732 14.1949V13.3042Z" fill="#81868E"/>
</svg>
