<svg preserveAspectRatio="none" width="100%" height="100%" overflow="visible" style="display: block;" viewBox="0 0 14 14" fill="none" xmlns="http://www.w3.org/2000/svg">
<g id="Icon" clip-path="url(#clip0_0_27)">
<path id="Vector" d="M7.48417 1.27167C7.33217 1.20234 7.16706 1.16646 7 1.16646C6.83294 1.16646 6.66783 1.20234 6.51583 1.27167L1.51667 3.54667C1.41315 3.59231 1.32515 3.66707 1.26336 3.76183C1.20158 3.8566 1.16868 3.96729 1.16868 4.08042C1.16868 4.19355 1.20158 4.30423 1.26336 4.399C1.32515 4.49377 1.41315 4.56852 1.51667 4.61417L6.52167 6.895C6.67366 6.96433 6.83877 7.00021 7.00583 7.00021C7.17289 7.00021 7.338 6.96433 7.49 6.895L12.495 4.62C12.5985 4.57436 12.6865 4.4996 12.7483 4.40483C12.8101 4.31007 12.843 4.19938 12.843 4.08625C12.843 3.97312 12.8101 3.86243 12.7483 3.76767C12.6865 3.6729 12.5985 3.59814 12.495 3.5525L7.48417 1.27167Z" stroke="var(--stroke-0, white)" stroke-opacity="0.8" stroke-width="1.16667" stroke-linecap="round" stroke-linejoin="round"/>
<path id="Vector_2" d="M1.16667 7C1.16639 7.11157 1.19812 7.22088 1.25809 7.31497C1.31805 7.40906 1.40375 7.48397 1.505 7.53083L6.52167 9.81167C6.67287 9.88013 6.83694 9.91555 7.00292 9.91555C7.1689 9.91555 7.33297 9.88013 7.48417 9.81167L12.4892 7.53667C12.5924 7.49026 12.6799 7.4148 12.7411 7.31951C12.8022 7.22422 12.8342 7.1132 12.8333 7" stroke="var(--stroke-0, white)" stroke-opacity="0.8" stroke-width="1.16667" stroke-linecap="round" stroke-linejoin="round"/>
<path id="Vector_3" d="M1.16667 9.91667C1.16639 10.0282 1.19812 10.1376 1.25809 10.2316C1.31805 10.3257 1.40375 10.4006 1.505 10.4475L6.52167 12.7283C6.67287 12.7968 6.83694 12.8322 7.00292 12.8322C7.1689 12.8322 7.33297 12.7968 7.48417 12.7283L12.4892 10.4533C12.5924 10.4069 12.6799 10.3315 12.7411 10.2362C12.8022 10.1409 12.8342 10.0299 12.8333 9.91667" stroke="var(--stroke-0, white)" stroke-opacity="0.8" stroke-width="1.16667" stroke-linecap="round" stroke-linejoin="round"/>
</g>
<defs>
<clipPath id="clip0_0_27">
<rect width="14" height="14" fill="white"/>
</clipPath>
</defs>
</svg>
