<svg preserveAspectRatio="none" width="100%" height="100%" overflow="visible" style="display: block;" viewBox="0 0 161.169 47.5243" fill="none" xmlns="http://www.w3.org/2000/svg">
<g id="Layer_1" clip-path="url(#clip0_0_6)">
<path id="Vector" d="M8.29505 0.164309C4.99652 1.60072 1.36976 5.65391 0.224464 10.7447C-1.22586 17.1935 4.81016 19.9202 5.30542 19.0274C5.88838 17.9764 4.22397 17.6211 3.88089 14.2751C3.43787 9.95376 5.37119 5.12439 7.80366 3.00563C8.25571 2.61218 8.23443 3.15979 8.23443 4.17326C8.23443 5.9857 8.13834 22.2541 8.13834 25.6497C8.13834 30.2438 7.95585 31.695 7.62761 33.1281C7.2955 34.5806 6.76154 35.5625 7.16588 35.9406C7.61793 36.3635 9.54868 35.3574 10.6662 33.736C12.0063 31.7915 12.4758 29.4563 12.5596 26.9199C12.6615 23.8628 12.657 19.0119 12.6615 16.2443C12.6654 13.7067 12.7028 6.27526 12.6189 1.80784C12.5983 0.711929 9.67508 -0.437603 8.29505 0.162969V0.164309ZM160.445 24.2998C159.967 24.2998 159.749 24.8126 159.568 25.6759C158.941 28.6767 158.283 29.3544 157.434 29.3544C156.484 29.3544 155.632 27.8684 155.412 24.8943C155.24 22.5557 155.268 18.2498 155.488 13.9667C155.533 13.0867 155.3 12.216 153.028 11.3587C152.051 10.9893 150.631 10.4471 149.923 12.2213C147.926 17.2344 147.143 21.2152 146.959 22.8312C146.95 22.915 146.852 22.9317 146.834 22.7367C146.716 21.4417 146.455 19.0884 146.422 14.1444C146.415 13.1798 146.219 12.3587 145.194 11.6864C144.53 11.2501 142.511 10.4786 141.784 11.3969C141.155 12.1476 140.426 14.1678 139.668 16.5621C139.052 18.5079 138.623 19.8243 138.623 19.8243C138.623 19.8243 138.631 14.5733 138.639 12.5813C138.642 11.8299 138.146 11.5792 137.996 11.5343C137.324 11.3312 135.997 10.992 135.435 10.992C134.74 10.992 134.57 11.3955 134.57 11.9834C134.57 12.0605 134.461 18.8973 134.461 23.6778C134.461 23.8856 134.461 24.1121 134.462 24.3527C134.078 26.5499 132.832 29.5327 131.477 29.5327C130.123 29.5327 129.482 28.2859 129.482 22.5865C129.482 19.262 129.578 17.8162 129.625 15.4119C129.652 14.0271 129.705 12.9627 129.702 12.722C129.692 11.982 128.461 11.6087 127.887 11.4706C127.312 11.3319 126.812 11.2776 126.421 11.301C125.868 11.3332 125.477 11.7106 125.477 12.2287C125.477 12.5069 125.48 13.035 125.48 13.035C124.768 11.8721 123.622 11.0624 122.861 10.8278C120.808 10.1944 118.666 10.7561 117.051 13.1054C115.767 14.9722 114.993 17.0869 114.688 20.1253C114.466 22.3459 114.538 24.5987 114.934 26.503C114.455 28.6519 113.567 29.5327 112.596 29.5327C111.184 29.5327 110.16 27.1384 110.28 22.9968C110.358 20.2727 110.883 18.3611 111.456 15.5955C111.7 14.4165 111.502 13.7992 111.004 13.208C110.547 12.665 109.574 12.3882 108.174 12.7294C107.177 12.972 105.752 13.2341 104.449 13.4345C104.449 13.4345 104.528 13.1081 104.592 12.533C104.931 9.51674 101.777 9.76139 100.771 10.7246C100.171 11.2997 99.7619 11.978 99.6065 13.1979C99.3601 15.1337 100.879 16.0466 100.879 16.0466C100.38 18.4181 99.1589 21.5154 97.8982 23.7548C97.223 24.9546 96.7058 25.8434 96.039 26.7892C96.0365 26.438 96.0345 26.0868 96.0339 25.7349C96.0184 20.75 96.0822 16.8262 96.1106 15.4125C96.1383 14.0277 96.1919 12.9921 96.1886 12.7508C96.1816 12.2093 95.8772 12.0048 95.2446 11.7461C94.6854 11.5169 94.0238 11.3587 93.3377 11.3037C92.4722 11.234 91.9499 11.7106 91.9641 12.2756C91.9667 12.3822 91.9667 13.0364 91.9667 13.0364C91.2547 11.8734 90.1088 11.0637 89.3472 10.8291C87.2946 10.1957 85.1529 10.7574 83.5375 13.1068C82.2536 14.9735 81.4133 17.5936 81.1747 20.1032C80.9529 22.4424 80.9935 24.4298 81.296 26.1042C80.9696 27.7806 80.0314 29.534 78.9699 29.534C77.6137 29.534 76.8418 28.2873 76.8418 22.5879C76.8418 19.2633 76.9379 17.8175 76.985 15.4132C77.0127 14.0284 77.0656 12.964 77.0624 12.7234C77.052 11.9834 75.821 11.61 75.2477 11.4719C74.648 11.3278 74.1308 11.2749 73.7329 11.305C73.208 11.3459 72.8397 11.8332 72.8397 12.1972V13.0364C72.1278 11.8734 70.9819 11.0637 70.2203 10.8291C68.1676 10.1957 66.0376 10.7661 64.4106 13.1068C63.3491 14.633 62.4902 16.3248 62.0478 20.0696C61.9201 21.1521 61.8634 22.1656 61.8711 23.1127C61.4481 25.8026 59.5792 28.9033 58.0496 28.9033C57.1551 28.9033 56.3026 27.0995 56.3026 23.2555C56.3026 18.1345 56.6076 10.8446 56.6592 10.1414C56.6592 10.1414 58.5913 10.1073 58.9653 10.1026C59.9294 10.0918 60.8019 10.1153 62.0852 10.0469C62.7288 10.0127 63.3491 7.6118 62.6849 7.3142C62.3838 7.17947 60.2557 7.0615 59.4122 7.0434C58.7028 7.02664 56.7276 6.87449 56.7276 6.87449C56.7276 6.87449 56.9049 2.03506 56.9462 1.52431C56.981 1.09801 56.4509 0.878829 56.1466 0.745443C55.4069 0.420357 54.7452 0.264852 53.9611 0.0966111C52.8777 -0.135976 52.3857 0.0912489 52.2902 1.04238C52.1458 2.48482 52.071 6.71027 52.071 6.71027C51.2758 6.71027 48.5596 6.54873 47.7645 6.54873C47.0255 6.54873 46.2278 9.85188 47.2499 9.89277C48.4255 9.94036 50.4736 9.98124 51.8317 10.0235C51.8317 10.0235 51.7711 17.4341 51.7711 19.7224C51.7711 19.9657 51.7717 20.2003 51.7737 20.4276C51.0263 24.4767 48.3932 26.6639 48.3932 26.6639C48.9588 23.9854 47.8038 21.9732 45.7235 20.2707C44.9567 19.6433 43.4438 18.4556 41.7511 17.1532C41.7511 17.1532 42.7313 16.1492 43.6012 14.1283C44.2171 12.6972 44.2441 11.0591 42.7313 10.6978C40.233 10.1006 38.1727 12.0075 37.5581 14.0438C37.0822 15.6217 37.3356 16.792 38.2687 18.0079C38.3371 18.097 38.4106 18.1875 38.4867 18.2787C37.9224 19.4087 37.148 20.9296 36.4915 22.1093C34.6697 25.385 33.2942 27.9756 32.254 27.9756C31.4228 27.9756 31.4344 25.3454 31.4344 22.8828C31.4344 20.76 31.5853 17.5682 31.7059 14.263C31.7459 13.1698 31.2196 12.5477 30.3381 11.9834C29.8029 11.6409 28.6595 10.9672 27.9979 10.9672C27.0073 10.9672 24.1486 11.1073 21.4479 19.2278C21.1074 20.2513 20.4387 22.116 20.4387 22.116L20.496 12.3507C20.496 12.1215 20.3787 11.9003 20.1098 11.7488C19.6545 11.4921 18.4389 10.9666 17.3581 10.9666C16.8435 10.9666 16.5862 11.2152 16.5862 11.7119L16.492 26.9903C16.492 28.1512 16.521 29.5052 16.632 30.0977C16.7416 30.6909 16.9202 31.1728 17.1408 31.4604C17.3613 31.7466 17.616 31.9651 18.0365 32.0556C18.4279 32.1394 20.5702 32.4256 20.6818 31.5743C20.8153 30.5542 20.8204 29.4516 21.9451 25.3374C23.6965 18.9322 25.98 15.8073 27.0538 14.6973C27.2414 14.5036 27.4555 14.4916 27.4452 14.8093C27.3994 16.2135 27.2382 19.7224 27.1299 22.7032C26.839 30.6809 28.2352 32.1595 30.2304 32.1595C31.7568 32.1595 33.9088 30.583 36.2155 26.5921C37.6535 24.1054 39.0497 21.6669 40.0531 19.9088C40.7521 20.5817 41.5363 21.3056 42.3205 22.0791C44.1422 23.8762 44.7407 25.584 44.3434 27.2048C44.0397 28.4435 42.897 29.7197 40.8618 28.479C40.2685 28.117 40.0151 27.8375 39.4192 27.4293C39.0987 27.2101 38.6099 27.1445 38.3165 27.3744C37.5542 27.9716 37.1189 28.731 36.87 29.6707C36.6282 30.5857 37.5097 31.069 38.4229 31.4919C39.2096 31.8559 40.9005 32.1856 41.9787 32.2232C46.18 32.3693 49.5463 30.1145 51.8891 24.2984C52.3089 29.3215 54.0933 32.1635 57.1951 32.1635C59.2684 32.1635 61.3475 29.3778 62.2567 26.6371C62.5179 27.7544 62.9042 28.7257 63.4027 29.5467C65.7926 33.482 70.4286 32.6354 72.7572 29.2934C73.4769 28.2605 73.5865 27.8891 73.5865 27.8891C73.9263 31.0448 76.3711 32.1474 77.7711 32.1474C79.3388 32.1474 80.9574 31.3773 82.0924 28.7223C82.2226 29.0058 82.3684 29.2806 82.529 29.5467C84.9188 33.482 89.5548 32.6354 91.8835 29.2934C91.9931 29.1365 92.0885 28.9944 92.1717 28.8664L92.2401 30.9396L90.0965 32.9833C86.5027 36.4064 83.7723 39.0037 83.5717 42.0274C83.3163 45.8828 86.3234 47.3159 88.6011 47.5036C91.0161 47.7026 93.0881 46.3152 94.3598 44.3727C95.4786 42.6635 96.2112 38.9836 96.1577 35.3494C96.1364 33.8942 96.1009 32.0435 96.0732 30.0602C97.3346 28.5373 98.7565 26.6129 100.064 24.3601C101.491 21.9049 103.019 18.6084 103.801 16.0426C103.801 16.0426 105.129 16.0547 106.547 15.9581C107 15.9273 107.13 16.0232 107.046 16.369C106.945 16.7859 105.256 23.5591 106.797 28.0701C107.852 31.1588 110.231 32.1521 111.642 32.1521C113.293 32.1521 114.873 30.8565 115.719 28.9314C115.821 29.1459 115.928 29.3537 116.044 29.5454C118.434 33.4806 123.054 32.6294 125.399 29.292C125.928 28.5393 126.228 27.8878 126.228 27.8878C126.731 31.1534 129.175 32.1629 130.575 32.1629C131.975 32.1629 133.416 31.5415 134.539 28.7806C134.586 29.9965 134.659 30.9899 134.776 31.3036C134.847 31.4953 135.262 31.7359 135.563 31.8518C136.896 32.3653 138.256 32.1226 138.76 32.0174C139.109 31.9443 139.38 31.6534 139.418 30.9027C139.515 28.9314 139.455 25.6202 140.03 23.159C140.995 19.0287 141.895 17.4261 142.322 16.6331C142.561 16.1887 142.831 16.1157 142.841 16.5855C142.861 17.5373 142.906 20.3317 143.281 24.0866C143.555 26.8482 143.921 28.4803 144.203 28.9971C145.007 30.4744 146.001 30.5441 146.81 30.5441C147.325 30.5441 148.401 30.3967 148.305 29.4563C148.258 28.9978 148.34 26.1658 149.291 22.0972C149.912 19.4396 150.949 17.0393 151.322 16.1612C151.46 15.8375 151.524 16.0929 151.522 16.1425C151.443 17.9723 151.267 23.9579 151.984 27.2323C152.956 31.6675 155.768 32.1635 156.749 32.1635C158.841 32.1635 160.552 30.5093 161.129 26.1558C161.269 25.1068 161.064 24.2984 160.447 24.2984L160.445 24.2998ZM72.7952 21.6086C72.6753 23.9124 72.2426 25.8381 71.5487 27.237C70.2931 29.7686 67.8091 30.5716 66.7141 26.9132C65.9241 24.2757 66.193 20.6783 66.5219 18.7351C67.0094 15.8516 68.2302 13.8072 70.1358 14.0009C72.0936 14.2 73.0448 16.8148 72.7952 21.6086ZM91.9209 21.6421C91.8093 23.8179 91.2663 26.003 90.6743 27.2376C89.4523 29.7867 86.898 30.5837 85.8397 26.9139C85.1162 24.4064 85.289 21.1609 85.6476 19.1165C86.1125 16.4629 87.2385 14.0016 89.2614 14.0016C91.2283 14.0016 92.1982 16.2444 91.9209 21.6421ZM92.42 36.4841C92.3936 40.4529 91.7925 43.9323 90.5041 44.9431C88.6765 46.3762 86.2202 45.301 86.7284 42.4054C87.1785 39.8429 89.3072 37.2255 92.4252 34.0282C92.4252 34.0282 92.4316 34.7575 92.42 36.4848V36.4841ZM125.436 21.6656C125.33 24.0538 124.821 25.9212 124.19 27.2376C122.968 29.7867 120.431 30.5783 119.355 26.9139C118.768 24.9164 118.741 21.5798 119.163 18.7928C119.592 15.9534 120.791 13.8085 122.777 14.0023C124.735 14.1933 125.652 16.8161 125.436 21.6663V21.6656Z" fill="var(--fill-0, white)"/>
</g>
<defs>
<clipPath id="clip0_0_6">
<rect width="161.169" height="47.5243" fill="white"/>
</clipPath>
</defs>
</svg>
